<svg xmlns="http://www.w3.org/2000/svg" xmlns:xlink="http://www.w3.org/1999/xlink" viewBox="0 0 76.367 70">
  <defs>
    <linearGradient id="linear-gradient" x1="0.242" y1="0.748" x2="0.582" y2="0.32" gradientUnits="objectBoundingBox">
      <stop offset="0" stop-color="#377af4" />
      <stop offset="1" stop-color="#48c7f0" />
    </linearGradient>
    <linearGradient id="linear-gradient-2" x1="-0.026" y1="0.326" x2="1.022" y2="0.886"
      gradientUnits="objectBoundingBox">
      <stop offset="0" stop-color="#3c9aef" />
      <stop offset="0.613" stop-color="#c44dce" />
      <stop offset="1" stop-color="#e54871" />
    </linearGradient>
  </defs>
  <g id="Group_13371" data-name="Group 13371" transform="translate(-83.753 -277.27)">
    <path id="Path_26043" data-name="Path 26043"
      d="M141.349,314.767H152.7a32.411,32.411,0,0,1-7.818,21.145L99.06,290.088a32.524,32.524,0,0,1,38.1-3.059v10.7h-5.679v11.358h9.865Zm8.907-2.357v-5.9h-5.9v5.9Zm6.067-9.139h7.746v-7.746h-7.746Zm-2.949,9.429h4.08v-4.079h-4.08Zm-13.755-23.069h7.689v-7.689h-7.689Zm14.492,0h5.22v-5.22h-5.22Zm-1.408-9.544h2.817V277.27H152.7ZM133.138,306.8h6.48v-6.48h-6.48Zm8.885-2.363h11.651V292.788H142.023Z"
      transform="translate(-3.949)" fill="url(#linear-gradient)" />
    <path id="Path_26044" data-name="Path 26044"
      d="M116.255,344.857a24.153,24.153,0,0,1-18.642-39.51l-6.038-6.038A32.5,32.5,0,0,0,137.4,345.133l-5.788-5.787A24.051,24.051,0,0,1,116.255,344.857Z"
      transform="translate(0 -5.686)" fill="url(#linear-gradient-2)" />
  </g>
</svg>