<svg xmlns="http://www.w3.org/2000/svg" xmlns:xlink="http://www.w3.org/1999/xlink" viewBox="0 0 60.814 65">
  <defs>
    <linearGradient id="linear-gradient" x1="0.885" y1="0.015" x2="0.153" y2="0.991" gradientUnits="objectBoundingBox">
      <stop offset="0.157" stop-color="#686f9f" />
      <stop offset="0.288" stop-color="#6a66a3" />
      <stop offset="0.491" stop-color="#6f50ae" />
      <stop offset="0.742" stop-color="#782cc0" />
      <stop offset="1" stop-color="#8400d7" />
    </linearGradient>
    <linearGradient id="linear-gradient-2" x1="0.293" y1="0.819" x2="0.618" y2="0.358"
      gradientUnits="objectBoundingBox">
      <stop offset="0.047" stop-color="#846fde" />
      <stop offset="0.229" stop-color="#8b5fcf" />
      <stop offset="0.581" stop-color="#a037ab" />
      <stop offset="0.995" stop-color="#bd0079" />
    </linearGradient>
    <linearGradient id="linear-gradient-3" x1="0.415" y1="-0.07" x2="0.759" y2="1.317"
      gradientUnits="objectBoundingBox">
      <stop offset="0" stop-color="#ff0059" />
      <stop offset="1" stop-color="#e27a2c" />
    </linearGradient>
    <linearGradient id="linear-gradient-4" x1="0.387" y1="-0.199" x2="0.707" y2="1.434"
      gradientUnits="objectBoundingBox">
      <stop offset="0" stop-color="#db0093" />
      <stop offset="0.005" stop-color="#da0093" stop-opacity="0" />
      <stop offset="1" stop-color="#554b9b" />
    </linearGradient>
  </defs>
  <g id="Group_13369" data-name="Group 13369" transform="translate(-336.222 -312.87)">
    <path id="Path_26030" data-name="Path 26030"
      d="M389.672,348.965c.042.3.07.6.085.9,0,.06.012.119.015.179s.011.118.014.178.01.12.013.18.01.12.012.18.008.12.011.18.007.121.01.18.006.121.009.182.006.122.008.183,0,.122.006.183,0,.122.006.183,0,.123,0,.184,0,.123,0,.184,0,.115,0,.172c0,.039,0,.078,0,.117s0,.1,0,.146,0,.1,0,.148,0,.1,0,.147,0,.1,0,.147,0,.1,0,.148,0,.1,0,.146,0,.1,0,.147,0,.1,0,.147,0,.1,0,.148,0,.1,0,.147,0,.1,0,.148,0,.1,0,.146,0,.1,0,.148,0,.1,0,.146,0,.1,0,.148,0,.1,0,.147,0,.1,0,.147,0,.1,0,.147,0,.1,0,.148,0,.1,0,.146,0,.1,0,.148,0,.1,0,.147,0,.1,0,.148,0,.1,0,.146,0,.1,0,.147,0,.1,0,.148,0,.078,0,.117c0-.018,0-.037,0-.055,0-.049,0-.1,0-.148s0-.1,0-.147,0-.1,0-.147,0-.1,0-.148,0-.1,0-.147,0-.1,0-.147,0-.1,0-.148,0-.1,0-.146,0-.1,0-.148,0-.1,0-.147,0-.1,0-.147,0-.1,0-.148,0-.1,0-.147,0-.1,0-.147,0-.1,0-.148,0-.1,0-.147,0-.1,0-.148,0-.1,0-.146,0-.1,0-.148,0-.1,0-.148,0-.1,0-.146,0-.1,0-.148,0-.1,0-.147,0-.1,0-.148,0-.1,0-.147,0-.118,0-.177,0-.109,0-.163,0-.106,0-.16c0-.027,0-.054,0-.081,0-.049,0-.1,0-.145s0-.1,0-.156,0-.1-.006-.156,0-.1-.006-.155-.006-.1-.008-.156-.006-.1-.009-.153-.007-.1-.01-.155-.009-.1-.011-.154-.01-.1-.012-.152c0-.014,0-.029,0-.043-.007-.05-.01-.1-.017-.152s-.012-.1-.018-.151-.013-.1-.019-.148-.013-.1-.02-.15-.015-.1-.021-.148-.016-.1-.022-.149-.017-.1-.023-.147-.017-.1-.024-.148-.018-.087-.024-.133c0-.011,0-.022-.006-.034-.012-.048-.02-.1-.03-.145s-.021-.1-.031-.144-.021-.1-.032-.143-.017-.072-.025-.109c.007.055.011.11.018.164S389.664,348.907,389.672,348.965Z"
      transform="translate(-11.018 -7.375)" fill="none" />
    <path id="Path_26031" data-name="Path 26031"
      d="M375.626,371.61c0-.049,0-.1,0-.147s0-.1,0-.147,0-.1,0-.148,0-.1,0-.146,0-.1,0-.148,0-.1,0-.147,0-.1,0-.148,0-.1,0-.147,0-.1,0-.146,0-.1,0-.148,0-.1,0-.147,0-.1,0-.147,0-.1,0-.147,0-.1,0-.147,0-.1,0-.148,0-.1,0-.146,0-.1,0-.148,0-.1,0-.147,0-.1,0-.148,0-.1,0-.146,0-.1,0-.148,0-.1,0-.147,0-.1,0-.147,0-.1,0-.147,0-.1,0-.147,0-.1,0-.147,0-.1,0-.148,0-.1,0-.146,0-.1,0-.148,0-.1,0-.147,0-.1,0-.147,0-.1,0-.148,0-.1,0-.146,0-.1,0-.148,0-.1,0-.147,0-.1,0-.147,0-.1,0-.147,0-.1,0-.147,0-.1,0-.148,0-.1,0-.146,0-.1,0-.148,0-.1,0-.147,0-.1,0-.147,0-.1,0-.148,0-.1,0-.146,0-.1,0-.148,0-.1,0-.146,0-.1,0-.148,0-.1,0-.147,0-.1,0-.148,0-.1,0-.146,0-.1,0-.148,0-.1,0-.147,0-.1,0-.147,0-.1,0-.147,0-.1,0-.148,0-.1,0-.146,0-.1,0-.148,0-.1,0-.146,0-.1,0-.148,0-.1,0-.147,0-.1,0-.147,0-.1,0-.148,0-.1,0-.147,0-.1,0-.147,0-.1,0-.147,0-.1,0-.147,0-.1,0-.148,0-.1,0-.146,0-.1,0-.148,0-.1,0-.147,0-.1,0-.147,0-.1,0-.147,0-.1,0-.148,0-.1,0-.146,0-.1,0-.147,0-.1,0-.148,0-.1,0-.147,0-.1,0-.147,0-.1,0-.148,0-.1,0-.146,0-.1,0-.148,0-.1,0-.147,0-.1,0-.147,0-.1,0-.147,0-.1,0-.148,0-.1,0-.146,0-.1,0-.148,0-.1,0-.146,0-.1,0-.148,0-.1,0-.147,0-.094,0-.142v0c0-.049,0-.1,0-.147s0-.1,0-.148,0-.1,0-.147,0-.1,0-.147,0-.1,0-.147,0-.1,0-.148,0-.1,0-.146,0-.1,0-.148,0-.1,0-.146,0-.1,0-.148,0-.1,0-.147,0-.1,0-.148,0-.1,0-.147,0-.1,0-.146,0-.1,0-.148,0-.1,0-.147,0-.1,0-.147,0-.1,0-.148,0-.1,0-.146,0-.1,0-.148,0-.1,0-.146,0-.1,0-.148,0-.1,0-.147,0-.1,0-.147,0-.1,0-.148,0-.1,0-.146,0-.1,0-.147,0-.1,0-.148a6.454,6.454,0,0,0-12.9.081c0,.048,0,.1,0,.147s0,.1,0,.147,0,.1,0,.147,0,.1,0,.148,0,.1,0,.147,0,.1,0,.147,0,.1,0,.148,0,.1,0,.147,0,.1,0,.147,0,.1,0,.148,0,.1,0,.148,0,.1,0,.146,0,.1,0,.148,0,.1,0,.147,0,.1,0,.147,0,.1,0,.148,0,.1,0,.147,0,.1,0,.147,0,.1,0,.147,0,.1,0,.148,0,.1,0,.147,0,.1,0,.147,0,.1,0,.148,0,.1,0,.147,0,.1,0,.148,0,.1,0,.146,0,.1,0,.148,0,.1,0,.148,0,.1,0,.146,0,.1,0,.148,0,.1,0,.147,0,.1,0,.147,0,.1,0,.148,0,.1,0,.148,0,.1,0,.146,0,.1,0,.148,0,.1,0,.147,0,.1,0,.148,0,.1,0,.146,0,.1,0,.148,0,.1,0,.148,0,.1,0,.147,0,.1,0,.147,0,.1,0,.147,0,.1,0,.147,0,.1,0,.148,0,.1,0,.147,0,.1,0,.148,0,.1,0,.147,0,.1,0,.147,0,.1,0,.147,0,.1,0,.148,0,.1,0,.147,0,.1,0,.147,0,.1,0,.148,0,.1,0,.147,0,.1,0,.147,0,.1,0,.148,0,.1,0,.147,0,.1,0,.147,0,.1,0,.148,0,.1,0,.147,0,.1,0,.147,0,.1,0,.147,0,.1,0,.148,0,.1,0,.147,0,.1,0,.147,0,.1,0,.148,0,.1,0,.147,0,.1,0,.148,0,.1,0,.147,0,.1,0,.147,0,.1,0,.147c0,.03,0,.061,0,.091v.046l-.04-.016c-.04-.019-.079-.04-.119-.058s-.079-.04-.119-.059-.07-.039-.106-.056-.073-.039-.109-.06l-.115-.064c-.037-.023-.076-.044-.114-.066l-.113-.067-.114-.068c-.037-.023-.074-.046-.112-.068s-.074-.048-.111-.07-.074-.048-.111-.07-.052-.037-.079-.052-.069-.047-.1-.071-.071-.05-.107-.075-.071-.052-.106-.077l-.1-.077-.1-.079-.1-.079c-.035-.027-.069-.055-.1-.08s-.067-.055-.1-.08-.043-.037-.065-.054l0,0c-.027-.025-.056-.044-.084-.069-.008-.007-.014-.016-.023-.023-.024-.022-.051-.041-.075-.063s-.019-.021-.03-.03-.045-.036-.067-.056-.025-.025-.037-.037-.04-.033-.06-.049-.029-.031-.044-.045-.035-.028-.052-.043-.033-.036-.052-.053-.029-.023-.044-.036-.038-.041-.059-.06l-.037-.029c-.023-.021-.043-.046-.066-.067l-.029-.023c-.025-.024-.048-.051-.073-.075l-.02-.016c-.017-.016-.031-.032-.047-.048-.028-.032-.06-.06-.088-.091s-.06-.063-.09-.1-.059-.063-.088-.1-.059-.064-.088-.1l-.087-.1-.087-.1c-.029-.033-.056-.067-.087-.1s-.056-.067-.085-.1-.055-.067-.084-.1-.036-.048-.056-.07-.049-.06-.072-.091-.054-.069-.08-.1-.053-.07-.079-.106l-.057-.077-.021-.029c-.025-.036-.052-.071-.078-.106l-.077-.107-.077-.107c-.025-.036-.049-.072-.075-.108s-.049-.073-.075-.11-.048-.073-.074-.109-.032-.052-.05-.077-.046-.07-.067-.106-.047-.075-.069-.112-.047-.075-.069-.114-.046-.076-.068-.114l-.067-.114c-.022-.039-.044-.077-.067-.115s-.043-.077-.066-.115-.042-.078-.065-.116-.042-.079-.065-.117-.041-.079-.064-.118-.033-.065-.051-.1-.036-.068-.053-.1-.04-.079-.059-.12-.04-.08-.059-.121-.039-.08-.058-.121-.037-.081-.056-.121-.037-.081-.056-.121-.036-.083-.056-.123-.036-.082-.055-.123-.034-.082-.053-.122-.034-.083-.053-.125-.033-.083-.052-.124-.025-.065-.039-.1-.032-.08-.047-.121-.033-.084-.048-.126-.032-.084-.047-.126-.03-.085-.046-.128-.03-.085-.045-.128-.029-.085-.044-.127-.029-.086-.044-.129-.028-.086-.043-.129-.026-.087-.041-.129-.026-.086-.041-.129-.025-.087-.04-.13-.019-.069-.03-.1-.025-.084-.036-.127-.025-.088-.036-.132-.024-.088-.035-.132-.023-.087-.034-.132-.022-.088-.033-.132-.021-.089-.033-.133-.02-.088-.031-.133-.02-.088-.031-.133-.019-.089-.03-.133-.018-.09-.029-.134-.017-.089-.028-.133-.013-.074-.021-.11-.017-.085-.024-.128-.016-.09-.023-.136-.016-.09-.023-.135-.014-.09-.021-.135-.014-.09-.021-.136-.013-.09-.021-.136-.012-.091-.019-.136-.012-.09-.018-.136-.011-.091-.018-.137-.01-.091-.017-.137-.009-.091-.016-.136-.006-.076-.011-.114-.009-.083-.012-.125-.008-.092-.011-.138-.007-.091-.009-.137-.006-.091-.009-.137-.006-.091-.009-.137,0-.092-.007-.138,0-.091-.007-.137,0-.092-.006-.137,0-.092,0-.138,0-.092,0-.138,0-.091,0-.137,0-.075,0-.113,0-.084,0-.125,0-.092,0-.138,0-.092,0-.138,0-.092,0-.137,0-.092,0-.139,0-.091.005-.137,0-.092.006-.138.006-.092.007-.138.006-.092.008-.138.007-.091.009-.137.008-.092.009-.138.007-.066.009-.1.008-.089.013-.133.01-.092.015-.138.01-.091.016-.137.011-.091.017-.137.012-.091.017-.137.012-.091.018-.136.014-.091.019-.137.014-.091.02-.137l0-.02-.016-.01c-.007.03-.014.06-.022.09-.014.054-.025.109-.04.163s-.025.109-.039.164-.017.087-.029.129-.023.107-.033.161-.022.11-.032.164-.022.111-.032.167-.021.11-.031.165-.02.111-.03.167-.018.111-.029.167-.017.111-.027.167-.018.111-.027.167-.016.112-.025.167-.015.112-.025.168-.014.112-.024.167-.01.093-.018.138-.013.106-.017.159-.013.113-.017.169-.011.113-.017.169-.01.112-.015.168-.01.114-.014.171-.009.112-.013.168-.007.114-.012.171-.006.113-.011.169-.006.114-.01.17,0,.114-.009.171,0,.114-.008.17,0,.1,0,.143,0,.1,0,.156,0,.113,0,.171,0,.113,0,.171,0,.113,0,.17,0,.114,0,.172,0,.113,0,.17,0,.114,0,.171,0,.113,0,.171,0,.114.006.171.006.113.006.17.007.114.008.171.008.093.009.14.006.1.011.156.009.113.014.171.01.113.015.171.011.113.017.169.012.114.017.171.013.113.018.169.014.114.019.171.014.113.021.169.015.113.021.171.017.113.022.169.018.114.024.17c.006.041.015.082.019.122s.017.11.028.164.02.113.03.169.021.112.031.167.021.113.033.168.022.112.033.168.023.112.034.168.025.11.036.166.025.113.037.169.026.11.037.167.028.111.039.167.026.1.036.148.02.085.032.127.029.11.045.164.03.11.046.165.032.11.048.165.033.109.048.164.033.109.049.163.035.11.051.164.035.109.052.163.036.109.053.164.037.108.053.163.037.1.052.152c.014.035.024.071.038.106.021.053.039.108.06.161s.04.107.061.16.041.106.063.159.043.106.064.16.044.106.064.159.045.1.067.159.045.1.067.158.047.1.068.158.048.1.069.156.044.092.063.139.03.067.047.1c.027.051.05.1.076.156s.051.1.077.153.052.1.078.153.052.1.079.153.054.1.08.152.056.1.082.152.056.1.082.152.057.1.083.15.059.1.085.151c.014.026.032.051.046.078.03.046.056.095.086.141s.06.1.09.146.062.1.094.148.061.1.092.144.064.1.1.145.064.1.1.144.066.1.1.144.067.1.1.144.067.094.1.142c.018.026.039.051.056.077s.038.051.056.076.022.032.034.047c.036.045.07.093.106.139s.071.091.107.137l.108.136.109.137c.037.045.075.09.11.136s.075.089.111.135.075.087.111.133.075.085.11.129.077.086.113.13c.01.013.021.024.032.036l.008.008c.035.036.064.075.1.11l.026.024c.032.033.059.068.09.1.011.012.023.021.034.032.029.03.054.063.083.093.014.013.029.025.043.039s.048.057.075.084.035.03.052.047.043.051.067.075.04.035.06.055.039.045.06.067.046.04.068.063.04.046.061.068.056.049.083.076.033.039.051.057.063.056.093.086l.041.046c.033.033.071.061.1.1.011.012.02.024.031.035.037.037.078.068.114.106l.012.013c.034.029.066.063.1.093s.091.081.137.121.092.08.138.12.093.079.139.118l.14.117.14.116c.047.038.094.075.141.114s.094.074.141.113.1.073.141.112.084.06.125.094.063.048.1.071c.048.032.1.069.144.1s.1.067.144.1.1.066.144.1.1.065.145.1.1.063.146.1l.146.1c.048.033.1.062.146.095s.1.06.147.094c.025.016.052.029.076.045.046.025.091.055.137.08s.1.056.148.084.1.056.149.083.1.054.15.082l.149.079c.05.026.1.052.15.079s.1.051.152.078.1.049.15.076.1.044.141.068c.022.009.043.021.064.031.052.021.1.045.152.067s.1.045.152.067.1.044.154.066l.152.063.01,0,.144.058c.052.021.1.04.154.062s.1.039.155.06.1.037.154.058l.061.022c.047.014.091.033.138.048s.1.035.156.051l.156.05c.052.015.1.033.156.048l.156.047.157.046.156.044c.052.015.1.028.157.044s.105.026.158.042l.037.009c.052.01.1.025.157.036s.1.023.158.034.1.022.158.033.106.021.16.032l.158.031c.053.009.106.018.16.029s.105.017.158.028.107.017.16.027.1.015.156.025l.032,0c.053,0,.106.014.16.02s.106.013.159.018.106.012.16.017l.159.016.16.014.16.014c.054,0,.107.007.16.013s.107.006.16.011.107,0,.161.01c.012,0,.024,0,.036,0,.05,0,.1,0,.148,0s.107,0,.16,0,.107,0,.16,0h.321l.159,0c.054,0,.107,0,.161,0s.107,0,.16,0,.107-.006.16-.006.107-.006.16-.006h.021c.053-.006.106-.007.16-.012s.107-.009.16-.013.106-.01.16-.014.106-.011.16-.016l.16-.017.16-.018.159-.019.16-.021c.053-.006.106-.015.159-.021s.106-.017.16-.023l.029,0c.048-.01.1-.015.145-.025s.106-.018.159-.029.106-.02.158-.03.106-.021.159-.032l.157-.033.159-.033c.052-.012.1-.024.157-.034l.158-.036c.052-.012.1-.026.157-.037s.1-.026.157-.037.1-.028.157-.039l.019,0c.049-.017.1-.027.148-.042s.1-.029.156-.045.1-.03.156-.046l.075-.023C375.627,371.7,375.628,371.654,375.626,371.61Z"
      transform="translate(-3.744 -7.194)" fill="url(#linear-gradient)" />
    <path id="Path_26032" data-name="Path 26032"
      d="M378.615,341.593c-.007-.06-.012-.118-.021-.177s-.013-.117-.021-.175-.014-.117-.022-.175-.015-.116-.024-.174-.016-.116-.025-.175-.017-.115-.025-.173-.017-.115-.026-.173-.019-.115-.028-.172-.02-.114-.029-.171-.021-.114-.03-.172-.021-.113-.03-.17q-.062-.443-.165-.879c-.012-.056-.021-.113-.033-.169s-.021-.113-.035-.168-.022-.113-.036-.168-.023-.112-.036-.167-.024-.112-.037-.167-.025-.111-.039-.166-.025-.111-.039-.167-.027-.109-.041-.164-.028-.11-.041-.165-.029-.109-.042-.164-.03-.109-.044-.164-.03-.109-.044-.164q-.1-.433-.241-.856c-.017-.053-.029-.108-.048-.162s-.029-.107-.048-.16-.031-.108-.048-.161-.032-.106-.05-.16-.033-.106-.051-.159-.033-.106-.052-.159-.034-.106-.052-.158-.035-.1-.053-.156-.036-.1-.054-.157-.037-.1-.056-.156-.037-.1-.056-.156-.039-.1-.057-.155-.039-.1-.057-.154q-.141-.42-.319-.828c-.021-.05-.038-.1-.06-.152s-.039-.1-.061-.152-.04-.1-.062-.152-.041-.1-.064-.151-.041-.1-.064-.15-.042-.1-.064-.149l-.065-.149c-.021-.049-.044-.1-.067-.148s-.045-.1-.067-.148-.045-.1-.067-.146-.047-.1-.069-.148-.047-.1-.07-.145-.048-.1-.07-.145-.049-.1-.071-.144c-.118-.269-.251-.533-.4-.791l-.041-.08c-.01-.021-.021-.042-.033-.063-.025-.047-.048-.1-.074-.142s-.049-.1-.075-.141-.049-.094-.075-.141-.05-.094-.077-.14l-.077-.14-.078-.139-.079-.137c-.026-.047-.053-.092-.08-.138s-.054-.091-.08-.137-.055-.09-.081-.136-.056-.091-.082-.136-.056-.09-.083-.135c-.144-.256-.3-.507-.469-.75-.029-.044-.055-.09-.085-.133s-.056-.089-.086-.133-.056-.088-.086-.131-.056-.088-.087-.131-.057-.087-.087-.13-.058-.087-.089-.131-.058-.086-.088-.128-.06-.086-.09-.129-.06-.086-.09-.128-.061-.085-.091-.127-.061-.085-.091-.127-.062-.083-.092-.125-.063-.083-.094-.125-.063-.083-.094-.125-.064-.082-.095-.124a8.6,8.6,0,0,0-.544-.7c-.032-.04-.062-.083-.1-.121s-.063-.082-.1-.121-.064-.081-.1-.12-.064-.081-.1-.12-.065-.08-.1-.119-.065-.079-.1-.118-.066-.079-.1-.117-.067-.078-.1-.117-.067-.078-.1-.117-.068-.077-.1-.116-.068-.076-.1-.115-.069-.075-.1-.113-.07-.075-.1-.113-.071-.075-.1-.113-.071-.075-.1-.113a8.821,8.821,0,0,0-.612-.644l0,0c-.033-.033-.062-.069-.1-.1l-.01-.009c-.031-.031-.058-.065-.09-.1l-.017-.014c-.029-.029-.054-.06-.084-.088-.008-.008-.016-.013-.024-.021-.027-.026-.05-.056-.078-.082-.01-.01-.021-.017-.031-.026-.025-.025-.046-.052-.071-.075l-.037-.032c-.023-.022-.042-.047-.065-.069s-.03-.024-.044-.037-.039-.043-.06-.063-.033-.028-.05-.044-.035-.038-.054-.056-.038-.031-.056-.048-.031-.034-.048-.05-.043-.035-.064-.055-.027-.029-.042-.044-.047-.038-.07-.06-.023-.025-.036-.037-.052-.043-.076-.066-.02-.021-.03-.031c-.027-.025-.056-.046-.083-.071l-.023-.025c-.029-.028-.06-.05-.09-.077l-.018-.018c-.031-.029-.064-.054-.1-.083l-.011-.013c-.033-.031-.069-.056-.1-.087l-.006-.006a8.732,8.732,0,0,0-.664-.569c-.039-.031-.076-.067-.116-.1s-.076-.067-.116-.1-.077-.066-.117-.1-.078-.066-.117-.1-.078-.064-.118-.1-.079-.064-.118-.094-.079-.064-.118-.094-.079-.063-.12-.093-.08-.062-.12-.092-.08-.061-.12-.091-.081-.061-.121-.091-.081-.06-.121-.09-.081-.059-.121-.089-.082-.059-.122-.089-.083-.057-.123-.087-.083-.057-.123-.087a8.271,8.271,0,0,0-.7-.487c-.042-.027-.082-.059-.124-.084s-.083-.058-.125-.084-.083-.057-.125-.083-.083-.056-.125-.083-.083-.056-.125-.082-.084-.055-.127-.081l-.126-.08-.128-.079-.127-.079c-.043-.027-.086-.052-.129-.078s-.086-.052-.129-.078-.086-.05-.129-.076-.086-.05-.129-.075-.087-.049-.13-.075-.087-.048-.13-.074-.087-.048-.13-.073-.087-.047-.13-.073a8.147,8.147,0,0,0-.733-.4c-.044-.022-.087-.049-.133-.071s-.087-.048-.132-.069-.087-.048-.133-.069-.088-.047-.133-.068l-.133-.067c-.045-.022-.089-.045-.134-.067s-.089-.044-.134-.065-.089-.044-.134-.065l-.134-.064-.135-.064-.136-.062c-.044-.022-.09-.041-.135-.062s-.091-.04-.137-.061-.09-.039-.136-.06-.091-.039-.137-.06-.091-.037-.136-.059a7.859,7.859,0,0,0-.754-.315c-.046-.017-.091-.04-.138-.056s-.091-.038-.137-.055-.091-.038-.138-.055-.092-.037-.139-.054-.091-.036-.138-.052-.092-.036-.139-.052l-.139-.051-.14-.051-.14-.049c-.047-.017-.094-.033-.14-.049l-.141-.048c-.047-.017-.094-.031-.14-.048s-.094-.03-.14-.046-.094-.029-.141-.045-.094-.029-.141-.045-.094-.028-.141-.044c-.029-.01-.058-.016-.087-.026-.116.038-.234.069-.349.113-.048.017-.1.03-.143.048s-.1.031-.143.048-.1.033-.143.051-.1.033-.144.051l-.142.052c-.048.017-.1.034-.143.053s-.094.035-.141.054l-.143.055c-.048.017-.094.038-.141.056s-.094.039-.141.057-.095.04-.142.058-.094.04-.141.06-.115.051-.173.074c-.232.089-.46.188-.684.3-.047.021-.094.04-.14.063s-.094.04-.14.064-.094.042-.14.066-.093.043-.139.066-.093.044-.139.067l-.139.068-.138.069-.138.071-.138.071c-.046.023-.091.048-.137.072s-.091.05-.137.074-.091.051-.137.075q-.35.174-.687.384c-.044.028-.091.05-.136.078s-.091.051-.135.079-.091.052-.135.079-.09.052-.135.081-.09.053-.135.082-.09.054-.133.083l-.134.084-.133.085c-.045.027-.089.057-.133.086s-.088.058-.133.087-.088.059-.133.088-.087.06-.132.089-.087.061-.132.09a7.543,7.543,0,0,0-.652.457c-.043.032-.088.06-.13.093s-.087.06-.13.094-.087.062-.129.1-.087.064-.129.1-.086.063-.129.1l-.129.1-.128.1c-.044.033-.086.067-.128.1l-.127.1c-.043.033-.085.069-.127.1s-.084.071-.127.1-.083.071-.126.1-.083.072-.125.106a7.745,7.745,0,0,0-.611.528c-.041.037-.084.071-.125.109s-.083.071-.123.11-.082.072-.123.111-.083.074-.123.113-.082.075-.121.113-.082.075-.122.114-.081.076-.121.116-.081.078-.121.117-.08.079-.12.118-.08.079-.12.119-.079.081-.12.121-.079.082-.119.121-.079.083-.118.122a8.018,8.018,0,0,0-.564.594l0,0c-.034.039-.072.072-.106.113l-.01.012c-.033.036-.067.068-.1.1l-.017.022c-.03.033-.063.063-.092.1-.009.01-.015.021-.024.03-.027.031-.057.058-.084.089-.011.013-.02.027-.031.04-.025.029-.052.052-.076.081s-.025.033-.038.049-.047.047-.069.073-.029.039-.044.058-.042.042-.062.065-.034.045-.052.067-.037.036-.054.056-.038.052-.059.077-.032.031-.046.048-.044.058-.067.086-.026.026-.038.04c-.027.031-.048.064-.074.1-.01.011-.021.021-.031.033-.029.033-.052.07-.08.1l-.024.025c-.029.033-.052.071-.081.1l-.011.012c-.031.036-.056.075-.086.111l0,0a7.9,7.9,0,0,0-.5.643c-.031.042-.065.082-.1.125s-.064.083-.094.125-.064.083-.093.125-.064.084-.094.127-.062.083-.091.126-.062.084-.091.126-.061.085-.09.128l-.09.129q-.045.064-.088.129c-.031.042-.06.086-.089.129s-.059.087-.088.129-.059.089-.088.133-.06.091-.09.136-.059.092-.089.137-.058.092-.088.137q-.232.332-.428.681c-.028.047-.06.092-.086.139s-.058.092-.084.139-.057.092-.083.14-.056.093-.082.14-.056.093-.082.14-.055.094-.081.141-.053.094-.079.141-.052.094-.079.141l-.077.142c-.027.047-.052.1-.077.142s-.05.1-.075.143-.049.1-.075.144-.048.1-.073.144q-.2.346-.354.707c-.022.048-.049.1-.071.145s-.048.1-.07.144-.048.1-.069.146-.047.1-.068.145-.045.1-.067.146-.045.1-.066.147-.044.1-.065.146-.044.1-.064.148-.043.1-.063.147-.041.1-.063.148-.041.1-.061.148-.04.1-.06.149-.039.1-.06.148-.038.1-.059.149q-.157.357-.279.727c-.017.05-.039.1-.056.15s-.038.1-.055.149-.037.1-.054.151-.036.1-.052.151-.036.1-.052.15-.035.1-.052.152-.034.1-.05.151-.033.1-.049.152c-.007.02-.013.04-.019.061l-.029.09c-.017.05-.031.1-.047.152s-.031.1-.047.152-.029.1-.045.152-.029.1-.044.152c-.037.11-.063.224-.094.336-.056.185-.112.37-.155.558-.013.052-.029.1-.04.153s-.029.1-.04.154-.028.1-.04.154-.026.1-.037.153-.026.1-.037.154-.025.1-.036.155-.024.1-.035.154-.024.1-.035.155-.022.1-.033.154-.021.1-.033.156-.021.1-.032.155-.02.1-.031.156-.019.1-.029.155-.018.1-.029.156c-.056.248-.1.5-.134.748-.008.052-.019.1-.026.156s-.018.1-.025.155-.017.1-.025.156-.017.1-.023.157-.017.1-.023.156-.015.1-.021.156-.014.1-.021.156-.014.1-.02.156-.013.1-.019.156-.012.1-.018.156-.011.1-.017.157-.01.1-.016.156-.01.1-.016.156-.009.1-.014.156c-.033.249-.055.5-.064.751,0,.052-.01.1-.013.157s-.009.1-.011.156-.008.1-.01.156-.008.1-.01.157-.007.1-.009.157-.006.1-.008.156,0,.1-.006.157,0,.1-.006.157,0,.1,0,.156,0,.1,0,.157,0,.1,0,.158,0,.1,0,.156,0,.1,0,.157,0,.1,0,.156,0,.1,0,.157c-.01.249-.008.5.006.747,0,.052,0,.1,0,.156s0,.1,0,.156,0,.1,0,.156,0,.1,0,.157,0,.1.006.156,0,.1.007.156,0,.1.008.156.006.1.009.155.006.1.009.156.007.1.01.156.008.1.011.156.009.1.012.156.01.1.013.156.01.1.013.155c.013.247.037.494.073.738.006.052.008.1.016.155s.009.1.017.155.01.1.017.155.011.1.019.154.012.1.02.154.013.1.021.155.014.1.021.153.013.1.021.154.015.1.023.154.016.1.024.153.017.1.025.154.017.1.025.152.018.1.027.154.018.1.027.153.02.1.028.152c.036.243.082.485.14.724.011.05.018.1.03.152s.019.1.032.152.02.1.032.152.021.1.033.15.021.1.033.152.022.1.034.15.023.1.036.151.023.1.036.149.025.1.037.151.025.1.038.149.025.1.038.149.027.1.04.15.027.1.04.148.029.1.041.148.029.1.042.148.029.1.042.148c.027.108.064.214.094.32.025.079.042.158.069.236.016.048.028.1.044.147s.028.1.044.147.029.1.046.146.029.1.047.147.03.1.047.146.032.1.048.146.032.1.049.145.033.1.049.145.033.1.051.145.034.1.052.145.035.1.052.144.035.1.052.144.036.094.054.143.037.1.055.144.037.094.055.142.039.095.056.142.029.067.041.1c.056.146.109.293.174.435.021.047.037.1.058.141s.037.094.058.141.038.094.06.14.037.09.058.135l0,0c.021.047.04.094.061.14s.04.094.062.14.04.093.062.139.041.093.064.139.042.092.063.138.043.091.064.137.044.091.066.137.044.091.066.137.045.09.067.136.046.091.067.136.047.09.069.136c.1.221.213.437.336.648.025.044.044.09.071.133s.046.091.071.134.047.09.072.133.048.089.073.133.048.088.074.132.049.088.075.132l.075.131.076.13c.025.044.051.087.077.131s.052.087.078.129.052.086.079.129.053.086.079.129.054.085.08.128.054.085.08.128.056.084.082.127a7.113,7.113,0,0,0,.4.613c.029.042.054.085.083.126s.055.083.084.124.056.083.086.125.056.083.086.124.057.082.086.123l.087.121.089.122c.029.041.059.081.089.121s.06.08.089.121.061.08.09.12.062.08.091.12.062.079.092.119.063.079.093.119.064.077.094.118l.017.021c.113.148.225.3.351.437.033.038.061.079.094.116s.062.078.1.116.064.078.1.115.063.077.1.114.064.076.1.113.065.076.1.113l.1.112.1.113.1.11c.033.037.068.074.1.111s.068.073.1.11.069.073.1.11.069.071.1.108.071.071.1.108a7.054,7.054,0,0,0,.518.526l0,0c.033.031.061.065.094.1l.013.01c.03.029.056.06.087.088l.02.017c.028.026.052.056.08.081.009.009.018.015.028.023.025.024.047.051.073.075.011.01.024.019.036.029s.043.045.066.067.029.023.043.036.038.041.06.06.034.028.051.043.034.036.052.052.04.032.059.048.029.031.044.045.045.036.067.056.025.025.038.038.05.04.075.061l.03.032c.027.024.056.044.083.068.008.007.014.016.023.023.029.027.06.048.09.075l.017.017c.032.029.067.053.1.081l.009.01c.034.031.071.057.106.087l0,0a7.324,7.324,0,0,0,.569.469c.039.03.077.064.117.094s.078.064.117.094.079.064.119.093.079.062.119.091.079.062.12.091l.121.091.121.09.124.089c.04.03.081.058.122.087s.082.058.123.087.083.057.125.087.084.056.125.085a6.775,6.775,0,0,0,.6.4c.043.027.083.057.126.083s.085.056.129.083.084.055.128.081l.129.08c.043.026.086.053.129.079l.13.079.131.078c.044.026.088.051.133.076s.088.051.132.076.089.049.133.075.09.048.134.074.091.048.135.074q.306.181.624.329c.045.022.09.048.137.07s.09.048.137.069.091.047.138.068.092.046.138.067l.14.067.14.065.14.064c.047.022.094.043.141.063l.028.013.114.05c.047.022.1.041.142.062s.1.04.144.061.1.038.144.06q.317.146.644.26c.048.017.1.04.145.056s.1.038.146.056.1.037.148.054.1.037.147.054l.149.052.148.052.15.051c.05.017.1.033.151.049s.1.032.151.048.1.031.152.047.1.03.152.047c.217.075.436.139.657.192.052.014.1.03.153.043s.1.029.155.042.1.029.156.04.1.028.156.04.1.027.157.039l.157.037c.052.013.106.025.158.036s.106.024.159.036.106.022.16.034.106.021.16.033.107.02.16.032c.221.053.443.094.666.125.054.009.107.021.162.029s.108.02.162.027.109.019.164.026.109.018.163.025l.165.024c.055.009.11.016.165.023l.166.021c.056.008.111.014.167.021s.111.013.167.019.112.012.168.018.113.01.168.017a6.529,6.529,0,0,0,.67.06c.056,0,.113.011.169.013s.114.01.171.012.113.009.17.011.114.008.172.009.114.007.171.009l.173.007c.057,0,.115,0,.173.006s.116,0,.174,0,.117,0,.175,0h.057l.117,0c.059,0,.117,0,.176,0q.334.014.668,0c.059,0,.117,0,.176,0s.118,0,.177,0,.119,0,.179,0,.118,0,.178-.007.12,0,.18-.008.119,0,.179-.009.12-.006.18-.011.121-.007.181-.012.121-.008.182-.013.121-.01.183-.014.121-.011.183-.016a7.15,7.15,0,0,0,4.863-2.319,6.93,6.93,0,0,0,1.72-4.993c0-.049,0-.1,0-.148s0-.1,0-.146,0-.1,0-.148,0-.1,0-.147,0-.1,0-.147V364.9c-.025.007-.05.014-.075.023-.052.016-.1.029-.156.046s-.1.029-.156.045-.1.025-.148.042l-.018,0c-.053.011-.106.027-.158.039s-.1.026-.157.037-.1.025-.157.037l-.158.036c-.052.01-.1.022-.156.034l-.16.033-.157.033c-.053.011-.106.02-.159.032s-.106.018-.158.03-.106.017-.159.029-.1.014-.145.025l-.029,0c-.054.006-.106.016-.16.023s-.106.014-.159.021l-.16.021-.159.019-.16.018-.16.017c-.053,0-.106.009-.16.016s-.107.008-.16.014-.107.007-.16.014-.106.006-.159.012l-.021,0c-.053,0-.107.006-.16.006s-.106,0-.16.006-.107,0-.16,0-.107,0-.161,0l-.16,0h-.322c-.053,0-.106,0-.16,0s-.106,0-.16,0-.1,0-.148,0c-.012,0-.024,0-.036,0-.054,0-.107-.006-.161-.01s-.106-.007-.16-.011-.106-.008-.16-.013l-.16-.013-.16-.014-.16-.016c-.054-.006-.107-.013-.16-.017s-.106-.014-.159-.018-.107-.015-.16-.02l-.032,0c-.052-.01-.1-.016-.156-.025s-.107-.017-.16-.027-.106-.018-.158-.028-.106-.02-.16-.029l-.158-.031c-.053-.011-.106-.022-.159-.032s-.106-.024-.158-.033-.106-.025-.158-.034-.1-.025-.157-.036l-.037-.009c-.052-.016-.106-.027-.158-.042s-.1-.029-.157-.044l-.156-.044-.157-.046-.156-.047c-.052-.016-.1-.033-.156-.048l-.156-.05c-.052-.016-.1-.035-.156-.051s-.091-.034-.138-.048l-.061-.022c-.052-.021-.1-.038-.154-.058s-.1-.04-.155-.06-.1-.041-.154-.062l-.144-.058-.01,0-.152-.063c-.052-.022-.1-.045-.154-.066s-.1-.046-.152-.067-.1-.047-.152-.067c-.021-.009-.042-.021-.064-.031-.046-.025-.094-.044-.141-.068s-.1-.05-.15-.076-.1-.052-.152-.078-.1-.053-.15-.079l-.149-.079c-.05-.028-.1-.056-.15-.082s-.1-.057-.149-.083-.1-.058-.148-.084-.091-.056-.137-.08c-.025-.017-.051-.029-.076-.045-.048-.033-.1-.062-.147-.094s-.1-.062-.146-.094l-.146-.1c-.048-.033-.1-.065-.146-.1s-.1-.067-.145-.1-.1-.067-.144-.1-.1-.069-.144-.1-.1-.07-.144-.1c-.033-.022-.063-.049-.1-.071s-.083-.062-.125-.094-.094-.074-.141-.112-.094-.075-.141-.113-.094-.076-.14-.114l-.14-.116-.14-.117c-.046-.039-.092-.08-.139-.118s-.091-.081-.138-.12-.09-.083-.137-.121-.067-.064-.1-.093l-.012-.013c-.037-.037-.077-.069-.114-.106-.011-.011-.02-.023-.031-.035-.033-.034-.071-.062-.1-.1l-.041-.046c-.03-.03-.063-.056-.093-.086s-.033-.039-.051-.057-.056-.049-.083-.076-.04-.046-.06-.068-.047-.04-.069-.063-.039-.046-.06-.067-.04-.036-.06-.055-.044-.052-.067-.075-.035-.03-.052-.047-.048-.057-.075-.084-.029-.025-.043-.039c-.029-.03-.053-.063-.083-.093-.011-.011-.023-.02-.034-.032-.032-.033-.059-.068-.09-.1l-.026-.024c-.034-.036-.064-.075-.1-.11l-.009-.008c-.01-.012-.021-.023-.032-.036-.036-.044-.076-.086-.113-.13s-.074-.086-.11-.129-.074-.088-.111-.133-.074-.091-.111-.135-.073-.091-.11-.136l-.109-.136-.108-.137c-.036-.046-.07-.092-.107-.137s-.069-.094-.106-.139c-.012-.015-.023-.031-.034-.047s-.036-.052-.056-.076-.038-.051-.056-.077c-.031-.048-.066-.094-.1-.142s-.066-.1-.1-.144-.064-.1-.1-.144-.064-.1-.1-.144-.063-.1-.1-.145-.06-.1-.092-.144-.061-.1-.094-.148-.059-.1-.09-.146-.056-.1-.086-.141c-.014-.027-.032-.052-.046-.078-.026-.051-.057-.1-.085-.151s-.056-.1-.083-.15-.055-.1-.082-.152-.054-.1-.082-.152-.052-.1-.08-.152-.052-.1-.079-.153-.051-.1-.078-.153-.05-.1-.077-.153-.049-.1-.076-.156c-.017-.033-.029-.068-.047-.1s-.044-.092-.063-.139-.047-.1-.069-.156-.046-.106-.068-.158-.044-.106-.067-.158-.044-.106-.067-.159-.042-.106-.064-.159-.041-.106-.064-.16-.04-.107-.063-.159-.039-.107-.061-.16-.039-.108-.06-.161c-.014-.035-.024-.071-.038-.106-.015-.051-.036-.1-.052-.152s-.037-.108-.053-.163-.036-.109-.053-.164-.034-.108-.052-.163-.033-.109-.051-.164-.033-.11-.049-.163-.031-.11-.048-.164-.03-.11-.048-.165-.029-.11-.046-.165-.028-.11-.045-.164-.019-.085-.032-.127-.026-.1-.036-.148-.026-.111-.039-.167-.025-.111-.037-.167-.025-.113-.036-.169-.024-.11-.036-.166-.022-.113-.034-.168-.021-.112-.033-.168-.021-.112-.033-.168-.019-.112-.031-.167-.018-.113-.03-.169-.016-.11-.028-.164-.013-.081-.019-.122c-.006-.056-.017-.113-.024-.17s-.015-.113-.022-.169-.015-.113-.021-.171-.013-.113-.021-.169-.013-.114-.019-.171-.012-.113-.018-.169-.011-.114-.017-.171-.01-.113-.017-.169-.008-.114-.015-.171-.007-.113-.013-.171-.006-.1-.011-.156-.007-.093-.009-.14-.006-.114-.008-.171,0-.113-.006-.17,0-.113-.006-.171,0-.114,0-.171,0-.114,0-.171,0-.114,0-.17,0-.114,0-.171,0-.114,0-.17,0-.114,0-.171,0-.114,0-.171,0-.1,0-.156,0-.1,0-.143,0-.114.008-.17.006-.113.009-.171.006-.113.01-.17.007-.113.011-.169.009-.114.012-.171.01-.112.013-.168.01-.114.014-.171.011-.112.015-.168.013-.113.017-.169.013-.113.017-.169.013-.106.017-.159.01-.092.017-.138.015-.112.024-.167.016-.112.025-.168.017-.112.025-.167.017-.112.027-.167.018-.111.027-.167.02-.111.029-.167.021-.111.03-.167.021-.11.031-.165.022-.111.032-.167.023-.109.033-.164.024-.107.033-.161.017-.087.029-.129.025-.11.039-.164.025-.11.04-.164c.008-.03.015-.06.022-.09s.012-.049.019-.074.017-.067.025-.1.008-.046.011-.069c.006-.04.016-.08.021-.12s.011-.07.018-.1.017-.09.028-.136.018-.09.028-.135.019-.091.029-.135.02-.09.03-.136.021-.09.03-.134.021-.09.032-.135.022-.09.033-.135.023-.089.033-.134.024-.089.034-.133.024-.083.033-.125.016-.06.025-.089.026-.089.04-.133.027-.088.04-.132.028-.088.041-.133.029-.088.043-.132.029-.087.043-.132.03-.087.044-.131.031-.087.045-.131.032-.086.045-.131.033-.086.047-.13.031-.076.044-.115.021-.056.033-.084.034-.086.052-.129.036-.086.053-.128.037-.086.054-.128l.056-.128c.019-.042.037-.084.056-.127s.039-.084.057-.126.04-.084.058-.127.041-.083.059-.126.041-.083.06-.125c.01-.021.023-.043.033-.065.022-.039.04-.079.062-.119s.042-.082.064-.122.044-.083.067-.123l.067-.122.068-.122c.023-.04.047-.081.069-.121l.07-.121c.023-.04.048-.08.071-.121s.049-.079.072-.121c.013-.022.028-.043.04-.065s.043-.07.066-.1.051-.079.077-.117.052-.079.079-.117l.079-.116.08-.117q.042-.057.081-.114c.028-.039.056-.076.083-.115s.056-.075.082-.113.056-.073.082-.11.057-.074.083-.111c.007-.011.016-.021.024-.031l.006-.006c.026-.031.048-.064.073-.094l.02-.021c.024-.028.044-.059.068-.087.008-.009.017-.017.025-.027.022-.025.04-.052.061-.079s.022-.022.033-.034.036-.048.056-.072.026-.025.038-.04.033-.043.05-.064.03-.031.044-.048.029-.039.045-.058.035-.035.052-.055.029-.039.044-.057.043-.044.063-.067.024-.033.037-.048.048-.048.071-.075.02-.027.031-.04c.025-.029.053-.053.078-.083l.023-.029c.028-.032.059-.06.087-.091l.008-.011c.026-.025.05-.054.076-.08s.069-.071.1-.106.07-.069.1-.1.07-.068.1-.1.071-.068.106-.1l.106-.1.075-.071.031-.029c.036-.033.072-.064.107-.1s.072-.064.108-.1.064-.053.1-.083.048-.043.072-.063.073-.061.11-.09.074-.06.111-.09l.11-.088.111-.087.112-.086c.037-.029.075-.056.112-.086s.075-.054.113-.083.076-.054.113-.083c.02-.014.04-.026.06-.041.036-.022.07-.049.106-.072s.076-.051.114-.075l.116-.075c.039-.024.077-.049.115-.074l.117-.073.116-.072c.04-.024.079-.046.117-.071s.079-.045.118-.07.074-.04.109-.064l.05-.028c.04-.02.079-.043.118-.063s.079-.041.119-.062l.121-.061.119-.06.12-.059.121-.058c.041-.02.081-.037.121-.057s.081-.036.121-.056l.048-.021c.037-.013.071-.032.108-.046l.123-.05c.041-.015.082-.033.122-.048s.083-.032.124-.048l.123-.047.124-.046c.041-.014.083-.029.124-.044s.083-.028.124-.044.083-.027.125-.042l.029-.01c.042-.011.083-.025.125-.037s.083-.025.125-.037l.125-.036c.042-.01.084-.023.126-.034l.126-.033.126-.033.126-.031.127-.031c.041-.01.083-.017.125-.029l.025-.006c.043-.007.085-.018.128-.025l.128-.024c.042-.006.085-.015.127-.023l.128-.021.129-.021.128-.02.129-.019c.043-.006.086-.01.128-.017s.087-.01.129-.017l.029,0c.04,0,.079-.009.119-.012s.087-.008.129-.011.086-.007.129-.01l.129-.009.129-.008.13-.008c.043,0,.086,0,.129-.006s.087,0,.13-.006.086,0,.129,0,.086,0,.129,0h.017c.043,0,.086,0,.129,0s.086,0,.129,0,.087,0,.129,0l.13,0,.129,0,.13.006.129.006c.043,0,.086.006.129.008s.087.006.129.008.087.008.13.01l.024,0c.04.006.079.007.118.012s.086.009.129.014l.129.016c.043.006.086.01.129.016l.129.017.129.018.129.019c.043.006.086.014.129.02s.086.015.129.021.086.016.129.022.085.016.128.022l.016,0c.041.01.082.016.122.025s.085.018.128.028.085.019.127.029l.128.029.127.03.128.031.127.033.127.033c.042.011.084.024.126.034s.085.024.128.034.083.025.125.036.075.025.114.033l.017.006c.041.015.083.026.125.04s.083.027.125.041.082.028.125.042l.125.043.124.044c.041.016.082.03.124.044l.125.046c.041.015.083.032.124.046s.082.033.124.048l.122.048c.042.015.083.034.124.048s.071.033.107.045l.011,0c.04.019.081.035.121.053s.081.036.121.055l.121.055c.04.02.08.037.121.056l.12.056.12.058.12.058c.04.02.079.04.119.06s.079.04.119.06.079.042.118.061.079.042.118.061.071.04.107.058.075.041.113.063.077.044.116.067.077.045.115.068l.115.067c.037.025.076.047.114.07l.114.07.114.071.113.071.113.072c.038.024.075.049.113.072s.075.051.113.074.066.048.1.068.064.043.1.066.073.052.11.079.072.052.108.079.072.054.108.081l.108.081.107.082.106.082.106.083.106.084c.035.028.069.057.1.084s.069.058.1.085.067.058.1.084.044.036.066.056l.018.019c.027.025.056.046.083.071.008.008.015.017.024.025.025.024.052.043.076.066s.02.021.03.031.047.039.07.06.023.025.036.037.043.036.064.055.026.03.041.044.039.032.057.049.031.034.048.05.034.028.051.044.035.038.053.056.03.025.044.038.039.043.06.063.025.021.038.032.042.047.065.069l.032.027c.025.025.046.051.071.075.008.008.017.014.025.021.027.026.05.056.077.081l.011.01c.019.023.042.043.062.065s.062.067.092.1.061.067.091.1.061.068.091.1l.048.056.041.047.09.1.089.1.088.1c.029.035.057.07.087.1s.057.071.087.106.056.072.086.107.041.055.063.081.052.068.078.1.055.073.082.111.054.074.08.11.054.075.08.113.053.075.079.112l.079.114c.025.037.051.075.078.113s.05.076.077.114.05.077.077.115.049.078.075.115.032.053.049.079l.008.012c.022.04.048.079.071.119s.048.079.071.119.047.081.07.121.046.081.069.121.045.081.068.122.044.082.067.122.044.083.067.123.043.082.066.122.043.083.066.125.035.074.056.11.04.082.059.123.04.085.06.128.039.086.059.129.038.086.058.128.037.086.057.129.037.087.056.13.036.086.055.13.036.087.055.131.034.087.053.13l0,0c.014.041.032.081.046.121s.033.09.048.134.032.09.048.135.031.09.047.136.03.091.046.137.029.09.044.137.029.091.044.137.028.092.043.137.027.093.042.139l.007.023c.01.04.024.079.033.12s.025.094.037.142.024.094.035.141.024.1.035.142.022.1.034.143l.008.035Z"
      transform="translate(0 -0.356)" fill="url(#linear-gradient-2)" />
    <path id="Path_26033" data-name="Path 26033"
      d="M402.312,367.435c0-.049,0-.1,0-.148s0-.1,0-.147,0-.1,0-.146,0-.1,0-.148,0-.1,0-.147,0-.1,0-.147,0-.1,0-.148,0-.1,0-.147,0-.1,0-.146,0-.1,0-.148,0-.1,0-.147,0-.1,0-.147,0-.1,0-.147,0-.1,0-.148,0-.1,0-.147,0-.1,0-.146,0-.1,0-.148,0-.1,0-.147,0-.1,0-.148,0-.1,0-.146,0-.1,0-.148,0-.1,0-.147,0-.1,0-.146,0-.1,0-.148,0-.1,0-.147,0-.1,0-.148,0-.1,0-.146,0-.1,0-.148,0-.1,0-.147,0-.1,0-.147,0-.1,0-.147,0-.1,0-.147,0-.1,0-.147,0-.1,0-.148,0-.1,0-.147,0-.1,0-.146,0-.1,0-.148,0-.1,0-.147,0-.1,0-.148,0-.1,0-.147,0-.1,0-.147,0-.1,0-.147,0-.1,0-.147,0-.1,0-.147,0-.1,0-.148,0-.1,0-.146,0-.1,0-.148,0-.1,0-.147,0-.1,0-.147,0-.1,0-.147,0-.1,0-.147,0-.1,0-.148,0-.1,0-.147,0-.1,0-.147,0-.1,0-.146,0-.1,0-.148,0-.1,0-.148,0-.1,0-.147,0-.1,0-.146,0-.1,0-.148,0-.1,0-.147,0-.1,0-.147,0-.1,0-.147,0-.1,0-.148,0-.1,0-.146,0-.1,0-.148,0-.1,0-.147,0-.1,0-.147,0-.1,0-.147,0-.1,0-.148,0-.1,0-.147,0-.1,0-.146,0-.1,0-.148,0-.1,0-.147,0-.1,0-.147,0-.1,0-.148,0-.1,0-.147,0-.1,0-.147,0-.1,0-.146,0-.1,0-.148,0-.1,0-.147,0-.1,0-.147,0-.1,0-.148,0-.1,0-.146,0-.1,0-.148,0-.1,0-.147,0-.1,0-.147,0-.1,0-.147,0-.1,0-.147,0-.1,0-.148,0-.1,0-.147,0-.1,0-.146,0-.1,0-.148,0-.1,0-.147,0-.1,0-.148,0-.1,0-.147,0-.1,0-.146,0-.1,0-.148,0-.1,0-.147,0-.1,0-.147,0-.1,0-.148,0-.1,0-.146,0-.1,0-.148,0-.1,0-.146,0-.1,0-.148,0-.1,0-.147,0-.1,0-.147,0-.1,0-.148,0-.1,0-.147,0-.1,0-.146,0-.1,0-.148,0-.1,0-.147,0-.1,0-.147,0-.1,0-.147,0-.1,0-.148,0-.1,0-.147,0-.1,0-.146,0-.1,0-.148,0-.1,0-.147,0-.1,0-.147,0-.1,0-.147,0-.1,0-.148,0-.1,0-.147,0-.1,0-.146,0-.1,0-.148,0-.1,0-.147,0-.1,0-.147,0-.1,0-.148,0-.1,0-.147,0-.1,0-.146,0-.1,0-.148,0-.1,0-.147,0-.1,0-.148,0-.1,0-.146,0-.1,0-.148,0-.1,0-.147,0-.1,0-.147,0-.1,0-.147,0-.1,0-.148,0-.1,0-.146,0-.1,0-.148,0-.1,0-.146,0-.1,0-.148,0-.1,0-.147,0-.1,0-.148,0-.1,0-.147,0-.1,0-.147,0-.1,0-.146,0-.1,0-.148,0-.1,0-.147,0-.1,0-.147,0-.1,0-.148,0-.1,0-.146,0-.078,0-.117c0-.057,0-.115,0-.172s0-.122,0-.184,0-.123,0-.184,0-.121-.006-.183,0-.121-.006-.183,0-.121-.008-.183,0-.121-.009-.182-.006-.12-.01-.18-.007-.12-.011-.18-.008-.12-.012-.18-.009-.12-.013-.18-.01-.118-.014-.178-.011-.119-.015-.179c-.015-.3-.043-.6-.085-.9-.007-.059-.01-.118-.018-.177s-.011-.117-.02-.176-.012-.118-.021-.177-.013-.117-.021-.175-.014-.117-.022-.175-.015-.116-.024-.174-.016-.116-.025-.175-.017-.115-.025-.173-.017-.115-.026-.173-.019-.115-.028-.172-.02-.114-.029-.171-.021-.114-.03-.172-.021-.113-.03-.17q-.062-.443-.165-.879c-.012-.056-.021-.113-.033-.169s-.021-.113-.035-.168-.022-.113-.036-.168-.023-.112-.036-.167-.024-.112-.037-.167-.025-.111-.039-.166-.025-.111-.039-.167-.027-.11-.04-.164-.028-.11-.041-.165-.029-.109-.042-.164-.03-.109-.044-.164-.03-.109-.044-.163q-.1-.433-.241-.856c-.017-.053-.029-.108-.048-.162s-.029-.107-.048-.16-.031-.108-.048-.161-.032-.106-.05-.16-.033-.106-.051-.159-.033-.106-.052-.159-.034-.106-.052-.158-.035-.1-.053-.156-.036-.1-.054-.157-.037-.1-.056-.156-.037-.1-.056-.156-.039-.1-.057-.155-.039-.1-.057-.154q-.141-.42-.319-.828c-.021-.05-.038-.1-.06-.152s-.039-.1-.061-.152-.04-.1-.062-.152-.041-.1-.064-.151-.041-.1-.064-.15-.042-.1-.064-.149l-.065-.149c-.021-.049-.044-.1-.067-.148s-.044-.1-.067-.148-.045-.1-.067-.146-.047-.1-.069-.148-.047-.1-.07-.145-.048-.1-.07-.145-.048-.1-.071-.145c-.118-.269-.251-.533-.4-.791-.026-.048-.048-.1-.074-.143s-.048-.1-.074-.142-.049-.1-.075-.141-.049-.094-.075-.141-.05-.094-.077-.14L397.5,329l-.078-.139-.079-.137c-.026-.047-.053-.092-.08-.138s-.054-.091-.08-.137-.055-.09-.081-.136-.056-.091-.082-.136-.056-.09-.083-.135c-.144-.256-.3-.507-.469-.75-.029-.044-.055-.09-.085-.133s-.056-.089-.086-.133-.056-.088-.086-.131-.056-.088-.086-.131-.057-.087-.087-.13-.058-.087-.089-.131-.058-.086-.088-.128-.06-.086-.09-.129-.06-.086-.09-.128-.061-.085-.091-.127-.061-.085-.091-.127-.062-.083-.092-.125-.063-.083-.094-.125-.063-.083-.094-.125-.064-.082-.095-.124a8.611,8.611,0,0,0-.544-.7c-.033-.04-.062-.083-.1-.121s-.063-.082-.1-.121-.064-.081-.1-.12-.064-.081-.1-.12-.065-.08-.1-.119-.065-.079-.1-.118-.066-.079-.1-.117l-.1-.117c-.033-.04-.067-.078-.1-.117s-.068-.077-.1-.116-.068-.076-.1-.115-.069-.075-.1-.114-.07-.075-.1-.113-.071-.075-.1-.113-.071-.075-.1-.113a8.813,8.813,0,0,0-.612-.644l0,0c-.033-.033-.062-.069-.1-.1l-.01-.009c-.031-.031-.058-.065-.09-.1l-.017-.014c-.029-.029-.054-.06-.084-.088-.008-.008-.016-.013-.024-.021-.027-.026-.05-.056-.078-.082-.01-.01-.021-.017-.031-.026-.025-.025-.046-.052-.071-.075l-.037-.032c-.023-.022-.042-.047-.065-.069s-.03-.024-.044-.037-.039-.043-.06-.063-.033-.028-.05-.044-.035-.038-.054-.056-.038-.031-.056-.048-.031-.034-.048-.05-.043-.035-.064-.055-.027-.029-.042-.044-.047-.038-.07-.06-.023-.025-.036-.037-.052-.043-.076-.066-.019-.021-.03-.031c-.027-.025-.056-.046-.083-.071l-.023-.025c-.029-.028-.06-.05-.09-.077l-.018-.018c-.031-.029-.064-.054-.1-.083l-.011-.013c-.033-.031-.069-.056-.1-.087l-.006-.006a8.714,8.714,0,0,0-.664-.569c-.039-.031-.076-.067-.115-.1s-.077-.067-.117-.1-.077-.066-.117-.1-.078-.066-.118-.1-.078-.064-.117-.1-.079-.064-.118-.094-.079-.064-.118-.094-.079-.063-.12-.093-.08-.062-.12-.092-.08-.061-.12-.091-.081-.061-.121-.091-.081-.06-.121-.09-.081-.059-.121-.089-.082-.059-.122-.089l-.027-.019-.1-.068c-.04-.032-.083-.057-.123-.087a8.257,8.257,0,0,0-.7-.487c-.042-.027-.082-.059-.124-.084s-.082-.058-.125-.084-.083-.057-.125-.083-.082-.056-.125-.083-.083-.056-.125-.082-.084-.055-.127-.081l-.126-.08-.128-.079-.127-.079c-.043-.027-.086-.052-.129-.078s-.086-.052-.129-.078-.086-.05-.129-.076-.086-.05-.129-.075-.087-.049-.13-.075-.087-.048-.13-.074-.087-.048-.13-.073-.087-.047-.13-.073a8.148,8.148,0,0,0-.733-.4c-.045-.022-.087-.049-.133-.071s-.087-.048-.132-.069-.087-.048-.132-.069-.088-.047-.133-.068l-.133-.067c-.045-.022-.089-.045-.134-.067s-.089-.044-.134-.065-.089-.044-.134-.065l-.134-.064-.135-.064-.136-.062c-.044-.022-.09-.041-.135-.062s-.091-.04-.137-.061-.09-.039-.136-.06-.091-.039-.137-.06-.091-.037-.137-.059a7.855,7.855,0,0,0-.754-.315c-.046-.017-.091-.04-.138-.056s-.09-.038-.137-.055-.091-.038-.138-.055-.092-.037-.139-.054-.091-.036-.138-.052-.092-.036-.139-.052l-.139-.051-.14-.051-.14-.049c-.047-.017-.094-.033-.14-.049l-.141-.048c-.047-.017-.094-.031-.14-.048s-.094-.03-.14-.046-.095-.029-.141-.045-.094-.029-.141-.045-.094-.028-.141-.044a7.783,7.783,0,0,0-.77-.233c-.048-.013-.094-.029-.141-.041s-.1-.029-.143-.041-.095-.028-.142-.039-.1-.028-.143-.04l-.143-.038c-.048-.012-.1-.025-.143-.037s-.1-.025-.144-.036l-.143-.036-.144-.035-.144-.033c-.048-.013-.1-.022-.144-.033s-.1-.021-.144-.032-.1-.021-.144-.032-.1-.019-.145-.03-.1-.018-.144-.029a7.53,7.53,0,0,0-.779-.152c-.047-.008-.093-.019-.14-.026h-.006c-.049-.008-.1-.02-.146-.026s-.1-.019-.145-.025-.1-.018-.145-.025-.1-.017-.146-.023-.1-.017-.146-.023l-.146-.022-.146-.021-.146-.02-.146-.019-.147-.019c-.049-.007-.1-.011-.147-.017s-.1-.011-.147-.017-.1-.01-.147-.016-.1-.009-.147-.015a7.579,7.579,0,0,0-.783-.071c-.049,0-.1-.01-.147-.012s-.1-.01-.147-.011-.1-.009-.148-.01-.1-.008-.148-.01-.1-.007-.147-.009-.1-.006-.148-.008l-.148-.006-.148-.006-.148,0c-.049,0-.1,0-.148,0s-.1,0-.148,0-.1,0-.148,0-.1,0-.148,0-.1,0-.148,0-.1,0-.148,0a7.781,7.781,0,0,0-.781.009c-.049,0-.1,0-.148,0s-.1,0-.148,0-.1,0-.148.006-.1,0-.148.006-.1,0-.148.007-.1,0-.148.008l-.147.008-.148.01c-.049,0-.1.006-.147.01s-.1.008-.148.011-.1.009-.148.013-.1.01-.148.014-.1.01-.148.014-.1.011-.148.015a7.7,7.7,0,0,0-.773.086c-.048.007-.1.01-.147.018s-.1.011-.148.019-.1.011-.147.02-.1.013-.148.021-.1.014-.147.022-.1.014-.147.023l-.148.023-.146.025-.148.026c-.049.008-.1.018-.147.027s-.1.018-.146.027-.1.02-.147.028-.1.021-.148.03a7.413,7.413,0,0,0-.76.162c-.048.012-.1.019-.145.032s-.1.021-.146.033-.1.021-.145.034-.1.022-.146.036-.1.023-.145.036-.1.024-.145.037l-.145.038-.145.039-.145.04c-.048.013-.1.028-.145.041s-.1.029-.144.042-.1.029-.144.044-.1.03-.145.044-.1.032-.144.045c-.133.036-.261.084-.392.126.029.01.058.016.087.026.047.016.094.027.141.044s.094.029.141.045.094.029.141.045.094.029.14.046.094.03.141.048l.14.048c.047.017.094.032.141.049l.14.049.14.051.139.051c.047.017.093.035.139.052s.092.036.138.052.093.037.139.054.092.037.138.055.091.037.137.055.092.039.138.056a7.858,7.858,0,0,1,.754.315c.045.021.091.037.137.059s.091.037.137.06.091.038.136.06.091.04.137.061.091.04.135.062l.136.062.135.064.134.064c.045.021.09.043.134.065s.09.044.134.065.089.044.134.067l.133.067c.044.021.088.046.133.068s.088.047.133.069.088.047.132.069.088.048.133.071a8.144,8.144,0,0,1,.733.4c.043.026.087.047.13.073s.087.047.13.073.087.048.13.074.087.049.13.075.087.049.129.075.087.05.129.076.087.051.129.078.086.051.129.078l.127.079.128.079.126.08c.043.026.084.054.127.081s.083.055.125.082.083.056.125.083.083.056.125.083.083.057.125.084.082.057.124.084a8.242,8.242,0,0,1,.7.487c.04.03.083.056.123.087s.083.056.123.087.082.058.122.089.081.058.121.089.081.059.121.09.08.06.121.091.08.06.12.091.08.06.12.092.079.062.12.093.079.062.118.094.079.063.118.094.078.064.117.1.078.064.117.1.077.065.117.1.077.066.116.1.077.066.116.1a8.7,8.7,0,0,1,.664.569l.006.006c.034.031.07.056.1.087l.011.013c.032.029.065.053.1.083l.018.018c.029.027.06.049.09.077l.023.025c.027.025.056.046.083.071.01.01.02.021.03.031s.052.042.076.066.023.025.036.037.048.038.07.06.027.03.042.044.043.036.064.055.031.034.048.05.038.032.056.048.035.039.054.056.034.028.05.044.039.042.06.063.029.024.044.037.042.047.065.069l.037.032c.025.024.047.051.071.075.01.01.021.017.031.026.028.026.051.056.078.082.008.007.016.013.024.021.03.028.055.06.084.088l.017.014c.033.03.06.064.09.1l.01.009c.034.032.063.068.1.1l0,0a8.8,8.8,0,0,1,.612.644c.033.038.071.074.1.113s.071.074.1.113.07.075.1.113.07.075.1.114.069.076.1.115.069.077.1.116.068.077.1.117.068.078.1.117.067.078.1.117.067.078.1.118.066.079.1.119.065.08.1.12.064.08.1.12.064.082.1.121.064.082.1.121a8.618,8.618,0,0,1,.544.7c.031.042.065.082.094.124s.064.082.094.125.064.083.094.125.063.083.092.125.062.084.091.127.062.084.091.127.06.084.091.128.06.085.09.129.059.085.088.128.059.087.089.131.058.087.087.13.057.087.087.131.056.088.086.131.056.089.086.133.056.09.085.133c.169.243.325.494.469.75.027.045.057.089.083.135s.056.09.082.136.056.09.081.136.055.091.08.137.054.091.08.138l.079.137.078.139.077.14c.027.047.052.094.077.14s.05.094.075.141.049.094.075.141.048.1.074.142c.012.021.022.042.033.063l.041.08c.144.257.277.521.4.791.023.048.05.1.071.145s.048.1.07.145.048.1.07.145.047.1.069.148.046.1.068.146.045.1.067.148.045.1.067.148l.065.149c.022.049.043.1.064.149s.042.1.064.15.042.1.064.151.04.1.062.152.04.1.061.152.039.1.06.152q.179.407.319.828c.018.052.04.1.057.154s.04.1.057.155.039.1.056.156.038.1.056.156.037.1.054.157.036.1.053.156.036.106.052.158.035.106.052.159.034.106.051.159.033.106.05.16.032.107.048.161.031.106.048.16.03.109.048.162q.14.423.241.856c.014.055.032.109.044.163s.031.109.044.164.029.109.042.164.029.109.041.165.028.11.041.164.027.111.039.167.026.11.039.166.025.112.037.167.025.112.036.167.024.112.036.168.022.112.035.168.021.113.033.169q.1.436.165.879c.009.057.022.113.03.17s.022.114.03.172.021.114.029.171.02.114.028.172.018.115.026.173.018.115.025.173.017.116.025.175.016.116.024.174.015.118.022.175.014.117.021.175.014.117.021.177l0,.012c.008.037.017.073.025.109s.02.1.032.143.019.1.031.144.018.1.03.145c0,.012,0,.023.006.034.006.045.017.089.024.133s.017.1.024.148.016.1.023.147.015.1.022.149.014.1.021.148.013.1.02.15.012.1.019.148.01.1.018.151.009.1.017.152c0,.014,0,.029,0,.043,0,.051.009.1.012.152s.008.1.011.154.006.1.009.155.006.1.009.153,0,.1.008.156,0,.1.006.155,0,.1.006.156,0,.1,0,.156,0,.1,0,.145c0,.027,0,.054,0,.081,0,.053,0,.106,0,.16s0,.109,0,.164,0,.117,0,.177,0,.1,0,.147,0,.1,0,.148,0,.1,0,.147,0,.1,0,.148,0,.1,0,.146,0,.1,0,.148,0,.1,0,.148,0,.1,0,.146,0,.1,0,.148,0,.1,0,.147,0,.1,0,.148,0,.1,0,.147,0,.1,0,.147,0,.1,0,.148,0,.1,0,.147,0,.1,0,.147,0,.1,0,.148,0,.1,0,.146,0,.1,0,.148,0,.1,0,.147,0,.1,0,.147,0,.1,0,.148,0,.1,0,.147,0,.1,0,.147,0,.1,0,.148c0,.018,0,.037,0,.055s0,.062,0,.092c0,.049,0,.1,0,.147s0,.1,0,.148,0,.1,0,.147,0,.1,0,.147,0,.1,0,.148,0,.1,0,.147,0,.1,0,.147,0,.1,0,.148,0,.1,0,.147,0,.1,0,.147,0,.1,0,.147,0,.1,0,.148,0,.1,0,.147,0,.1,0,.147,0,.1,0,.148,0,.1,0,.147,0,.1,0,.148,0,.1,0,.146,0,.1,0,.148,0,.1,0,.147,0,.1,0,.147,0,.1,0,.147,0,.1,0,.148,0,.1,0,.147,0,.1,0,.148,0,.1,0,.147,0,.1,0,.148,0,.1,0,.146,0,.1,0,.147,0,.1,0,.148,0,.1,0,.147,0,.1,0,.148,0,.1,0,.147,0,.1,0,.147,0,.1,0,.148,0,.1,0,.147,0,.1,0,.147,0,.1,0,.147,0,.1,0,.148,0,.1,0,.147,0,.1,0,.147,0,.1,0,.148,0,.1,0,.147,0,.1,0,.147,0,.1,0,.148,0,.1,0,.147,0,.1,0,.147,0,.1,0,.148,0,.1,0,.146,0,.1,0,.148,0,.1,0,.147,0,.1,0,.148,0,.1,0,.147,0,.1,0,.148,0,.1,0,.146,0,.1,0,.148,0,.1,0,.148,0,.1,0,.146,0,.1,0,.148,0,.1,0,.147,0,.1,0,.147,0,.1,0,.147,0,.1,0,.148,0,.1,0,.148,0,.1,0,.146,0,.1,0,.148,0,.1,0,.147,0,.1,0,.147,0,.1,0,.148,0,.1,0,.147,0,.1,0,.147,0,.1,0,.148,0,.1,0,.147,0,.1,0,.147,0,.1,0,.148,0,.1,0,.147,0,.1,0,.147,0,.1,0,.148,0,.1,0,.146c0,.03,0,.06,0,.089v.059c0,.049,0,.1,0,.148s0,.1,0,.146,0,.1,0,.148,0,.1,0,.147,0,.1,0,.148,0,.1,0,.147,0,.1,0,.147,0,.1,0,.148,0,.1,0,.146,0,.1,0,.148,0,.1,0,.148,0,.1,0,.146,0,.1,0,.148,0,.1,0,.147,0,.1,0,.147,0,.1,0,.148,0,.1,0,.147,0,.1,0,.147,0,.1,0,.148,0,.1,0,.147,0,.1,0,.147,0,.1,0,.147,0,.1,0,.148,0,.1,0,.147,0,.1,0,.148,0,.1,0,.147,0,.1,0,.147,0,.1,0,.148,0,.1,0,.146,0,.1,0,.148,0,.1,0,.147,0,.1,0,.148,0,.1,0,.147,0,.1,0,.147,0,.1,0,.148,0,.1,0,.147,0,.1,0,.147,0,.1,0,.148,0,.1,0,.146,0,.1,0,.148,0,.1,0,.147,0,.1,0,.147,0,.1,0,.148,0,.1,0,.148,0,.1,0,.146,0,.1,0,.147,0,.1,0,.148a10.622,10.622,0,0,0,.321,3.048,9.846,9.846,0,0,0,2.686,4.68,8.658,8.658,0,0,0,12.861-.81A10.325,10.325,0,0,0,402.312,367.435Z"
      transform="translate(-5.291)" fill="url(#linear-gradient-3)" />
    <path id="Path_26034" data-name="Path 26034"
      d="M388.2,369.788V343.679a20.222,20.222,0,0,0-17.921-19.712c-5.712-.739-10.3-.149-15.68,3.584s-14.567,13.895-7.168,28.523c5.762,11.392,18.849,11.232,18.849,11.232l-.033-18.5s-.221-5.47,1.83-5.884a6.215,6.215,0,0,0-.646-.112,6.465,6.465,0,0,0-7.062,6.28c0,.049,0,.1,0,.148s0,.1,0,.147,0,.1,0,.147,0,.1,0,.148,0,.1,0,.147,0,.1,0,.147,0,.1,0,.148,0,.1,0,.147,0,.1,0,.147,0,.1,0,.147,0,.1,0,.148,0,.1,0,.147,0,.1,0,.147,0,.1,0,.148,0,.1,0,.147,0,.1,0,.147,0,.1,0,.148,0,.1,0,.147,0,.1,0,.147,0,.1,0,.148,0,.1,0,.147,0,.1,0,.147,0,.1,0,.148,0,.1,0,.147,0,.1,0,.148,0,.1,0,.146,0,.1,0,.148,0,.1,0,.148,0,.1,0,.146,0,.1,0,.148,0,.1,0,.147,0,.1,0,.147,0,.1,0,.148,0,.1,0,.147,0,.1,0,.147,0,.1,0,.148,0,.1,0,.147,0,.1,0,.148,0,.1,0,.146,0,.1,0,.148,0,.1,0,.148,0,.1,0,.146,0,.1,0,.148,0,.1,0,.147,0,.1,0,.147,0,.1,0,.148,0,.1,0,.147,0,.1,0,.148,0,.1,0,.147,0,.1,0,.147,0,.1,0,.147,0,.1,0,.148,0,.1,0,.147,0,.1,0,.147,0,.1,0,.148,0,.1,0,.147,0,.1,0,.147,0,.1,0,.147,0,.1,0,.148,0,.1,0,.147,0,.1,0,.148,0,.1,0,.147,0,.1,0,.147,0,.1,0,.147,0,.1,0,.148,0,.1,0,.147,0,.1,0,.147,0,.1,0,.147,0,.1,0,.148,0,.1,0,.148,0,.1,0,.146,0,.1,0,.148,0,.1,0,.147c0,.03,0,.06,0,.091v.046c-.013-.006-.026-.01-.039-.016-.04-.019-.079-.04-.12-.058s-.079-.04-.119-.06-.07-.038-.106-.055-.073-.039-.11-.06-.076-.043-.114-.064-.076-.044-.114-.066-.075-.044-.113-.067l-.113-.067c-.037-.023-.075-.047-.113-.068s-.074-.048-.111-.07-.073-.048-.11-.07-.052-.036-.079-.053-.069-.046-.1-.071-.072-.05-.107-.076l-.106-.076-.106-.077-.1-.079-.1-.079c-.035-.027-.068-.055-.1-.08s-.067-.055-.1-.081-.043-.036-.065-.053l0,0c-.027-.025-.056-.044-.083-.069l-.023-.023c-.025-.022-.051-.04-.075-.063s-.02-.021-.03-.03-.046-.037-.068-.056-.024-.025-.037-.037-.041-.033-.06-.05-.029-.03-.044-.045-.035-.027-.052-.042-.033-.036-.052-.053-.029-.023-.044-.036-.038-.041-.06-.06-.024-.019-.036-.029-.043-.046-.067-.067l-.028-.023c-.026-.024-.048-.051-.074-.075-.006-.006-.013-.01-.02-.017s-.03-.032-.047-.047c-.028-.032-.059-.06-.087-.092s-.06-.063-.09-.1-.06-.064-.089-.1l-.087-.1-.088-.1-.086-.1c-.029-.033-.057-.067-.087-.1s-.056-.067-.085-.1-.056-.068-.085-.1-.036-.048-.056-.07-.049-.06-.072-.09-.054-.069-.08-.1-.053-.07-.079-.106-.038-.052-.058-.077l-.021-.029-.078-.106-.078-.107c-.025-.036-.05-.071-.076-.107s-.05-.073-.075-.108-.049-.074-.075-.109-.048-.073-.075-.109-.032-.052-.05-.077-.045-.07-.067-.106-.047-.075-.07-.112-.046-.076-.069-.114-.045-.076-.068-.114l-.067-.114-.067-.115-.066-.115c-.022-.039-.043-.078-.065-.116s-.042-.079-.065-.118-.041-.079-.064-.117-.032-.066-.05-.1-.036-.067-.053-.1-.04-.079-.06-.12-.04-.08-.059-.121-.038-.08-.057-.121-.038-.081-.057-.121-.037-.081-.056-.122-.036-.082-.055-.122-.036-.083-.055-.123-.035-.082-.054-.122-.034-.083-.053-.125-.033-.083-.052-.124-.024-.065-.039-.1-.032-.08-.046-.121-.033-.084-.048-.126-.031-.084-.046-.126l-.046-.128c-.014-.043-.03-.085-.045-.128s-.029-.085-.044-.127-.029-.086-.044-.129-.028-.086-.043-.129-.027-.086-.042-.129-.026-.086-.041-.128-.025-.087-.04-.13-.018-.069-.03-.1-.025-.084-.036-.127-.024-.088-.036-.132-.023-.088-.035-.132-.022-.087-.033-.132l-.033-.132c-.01-.044-.021-.089-.033-.133s-.021-.088-.032-.133-.02-.089-.031-.133-.018-.09-.029-.134-.018-.089-.029-.133-.017-.089-.029-.133-.013-.074-.021-.11-.017-.086-.023-.129-.017-.09-.024-.135-.015-.09-.022-.135-.015-.09-.022-.135-.013-.091-.021-.136-.013-.09-.02-.136-.013-.09-.02-.136-.011-.09-.018-.136-.01-.091-.017-.136-.01-.091-.017-.137-.01-.091-.016-.136-.006-.077-.012-.115-.009-.083-.011-.125-.008-.092-.011-.138-.007-.091-.01-.137-.006-.091-.01-.137,0-.091-.008-.137,0-.092-.008-.138,0-.091-.006-.137,0-.092-.006-.138,0-.091-.006-.137,0-.092,0-.138,0-.092,0-.137,0-.075,0-.113,0-.084,0-.126,0-.091,0-.137,0-.092,0-.138,0-.092,0-.137,0-.093,0-.139,0-.091.006-.137,0-.092.006-.138.006-.092.007-.138.005-.092.007-.138.007-.091.009-.137.008-.092.01-.138.007-.066.008-.1.008-.089.013-.133.009-.092.015-.138.01-.091.015-.137.011-.091.017-.137.012-.092.017-.137.013-.091.018-.137.014-.091.019-.137.014-.091.021-.137l0-.02-.016-.01h0c.006-.025.012-.049.018-.074s.017-.067.026-.1.008-.046.011-.069c.006-.04.016-.08.021-.121s.012-.069.019-.1.017-.091.027-.136.018-.09.028-.135.019-.09.029-.135.02-.091.029-.136.021-.09.031-.134.021-.09.031-.135.023-.09.033-.135.024-.089.033-.134.025-.089.034-.133.025-.083.034-.125.015-.06.025-.089.025-.089.04-.133.026-.088.041-.133.027-.088.041-.132.029-.088.042-.132.029-.088.044-.132.03-.087.044-.131.031-.087.045-.131.032-.087.046-.131.033-.086.047-.13.031-.076.044-.115.021-.056.032-.084c.019-.043.035-.086.053-.129s.035-.086.053-.129.036-.085.054-.127.037-.085.055-.128.038-.084.056-.127.038-.084.056-.127.04-.083.059-.126.04-.084.059-.126.04-.083.059-.125c.01-.021.023-.043.033-.065.021-.039.04-.079.061-.119s.043-.082.065-.122.044-.083.066-.124.045-.081.067-.122.045-.081.067-.121.047-.081.069-.121.048-.08.07-.121.048-.079.071-.121.049-.079.071-.12c.013-.022.029-.043.041-.065s.042-.07.065-.1.052-.079.078-.117.052-.078.079-.117l.079-.117.08-.116.081-.114c.027-.039.056-.076.082-.115s.056-.075.083-.113.056-.073.082-.111.056-.073.082-.111c.008-.01.017-.02.024-.03l.006-.007c.026-.03.047-.063.073-.094.006-.007.013-.013.019-.021.025-.029.044-.059.067-.087l.026-.027c.021-.025.039-.053.06-.079s.022-.022.033-.034.036-.048.056-.072.026-.026.039-.04.032-.043.049-.063.031-.031.045-.048.029-.039.044-.058.036-.035.052-.055.029-.039.044-.058.043-.043.063-.066.025-.033.038-.048.048-.048.071-.075.019-.027.03-.04c.025-.029.053-.053.079-.083.008-.009.014-.02.022-.029.029-.032.059-.06.087-.091l.009-.011c.026-.025.05-.055.076-.08s.069-.071.1-.106.069-.069.1-.1l.1-.1.106-.1c.036-.033.071-.067.106-.1l.076-.071.03-.029c.036-.033.072-.064.107-.1s.073-.064.108-.1.064-.054.1-.083.048-.042.073-.062.072-.061.109-.09.073-.06.11-.09.074-.059.11-.088l.112-.087.112-.086.112-.086c.037-.028.075-.055.112-.083s.076-.054.114-.083c.019-.014.04-.026.06-.041.036-.022.069-.049.1-.072s.076-.051.114-.075.078-.051.116-.075.077-.049.116-.074.078-.048.116-.074l.117-.071c.039-.024.079-.046.117-.071s.079-.044.117-.069.074-.041.11-.064l.049-.028c.04-.02.079-.043.119-.063s.079-.041.119-.062l.12-.061.119-.06.121-.059c.04-.02.081-.038.121-.059s.081-.036.121-.056.08-.036.121-.056c.016-.007.032-.013.048-.021.036-.014.072-.032.109-.046l.123-.05.122-.048.123-.048.124-.047.124-.046c.041-.015.083-.029.123-.044s.083-.028.125-.044.083-.027.125-.042l.029-.009c.042-.011.083-.025.125-.037s.083-.025.125-.036l.125-.036.126-.034.125-.034c.042-.01.085-.021.127-.033l.125-.031.128-.031c.041-.01.083-.017.125-.029l.025-.006c.043-.007.085-.017.128-.025l.128-.024.128-.023.128-.021.128-.021.128-.02.129-.019c.043-.006.086-.011.129-.018s.086-.01.129-.017l.029,0c.04,0,.079-.009.119-.012s.086-.008.129-.011.086-.007.129-.01l.129-.01.129-.008.129-.008c.043,0,.087,0,.129-.006s.087,0,.129-.006.086,0,.129,0,.087,0,.129,0h.017c.044,0,.087,0,.129,0s.086,0,.129,0,.087,0,.13,0l.129,0,.129,0,.129.006.129.006c.044,0,.086.006.13.007s.086.007.129.009.087.008.129.009l.025,0c.039.006.079.006.118.012s.086.009.129.014.086.01.129.016.086.01.129.016l.129.017.13.018.128.019c.043.006.086.014.129.02s.087.015.129.021.086.016.129.022.086.016.128.022l.016,0c.04.01.081.015.121.025s.085.018.128.028.085.019.128.029.085.02.128.029l.127.031.128.031c.042.011.084.022.126.032l.128.033c.042.011.083.024.126.033s.084.025.127.035.084.025.126.036.075.024.113.033l.017.006c.041.015.083.026.125.04s.084.028.125.042.083.028.125.042l.125.043.125.044.124.044c.041.016.083.032.125.046s.082.032.123.046.083.033.124.047.082.033.123.048.082.034.123.048.071.032.108.045l.01,0c.04.019.082.035.121.053s.081.036.122.055.08.036.121.055l.12.056.121.056.12.058.119.058c.04.02.079.041.119.059s.079.041.119.06.079.042.118.06.079.043.118.062.071.04.108.058.075.041.113.064.077.044.115.067.077.045.115.067.077.046.115.068l.114.07.115.07.113.07.114.072.113.072c.037.024.075.049.112.072s.075.051.113.074.066.048.1.068.064.043.1.066.073.052.109.079l.108.079c.036.028.072.053.109.081l.107.08.107.082.107.082.106.083.106.084c.036.027.07.057.1.084s.07.058.106.085.067.058.1.084.044.036.067.056l.017.019c.027.025.056.046.083.072.009.008.015.017.024.025.025.024.052.043.077.066.01.01.019.021.029.031s.048.039.07.06.024.025.036.037.043.036.064.055l.041.044c.019.017.039.032.058.049s.03.034.048.05.034.028.05.043.035.039.054.056.03.025.044.038.038.043.06.063.025.021.037.032.042.047.066.069.021.017.031.027c.025.025.046.051.071.075l.025.021c.027.026.05.056.078.081l.01.01c.02.022.043.043.062.065s.063.067.093.1.06.067.09.1.061.068.091.1c.016.019.033.037.049.056l.04.047.09.1.088.1.089.106c.029.034.057.07.087.1s.056.071.086.106.056.072.087.107.04.055.064.081.052.068.077.1.055.074.082.111.054.074.081.111.053.075.08.113l.079.112.079.114.078.113.077.115c.026.038.051.077.077.115s.049.078.075.115.033.053.05.079l.007.012c.023.041.048.079.071.12s.048.079.071.119l.07.121.069.121.068.121c.023.04.044.082.068.122s.044.082.067.123.043.082.066.122.042.083.065.124.036.075.056.11.04.082.059.123.04.085.06.128.04.086.059.129l.058.128.057.129.056.13c.018.043.036.087.056.129s.035.088.055.132.034.087.053.13l0,0c.013.041.032.081.046.121s.033.09.048.134.032.09.047.135.032.09.047.136.031.09.046.137.029.09.045.137.029.091.044.137.028.092.044.137.026.093.042.139l.006.023c.01.04.024.079.034.12s.025.094.036.142.024.094.036.14.023.1.035.142.022.1.033.143l.008.035c.008.055.012.11.018.164s.011.118.018.177c.042.3.071.6.085.9,0,.06.013.119.015.179s.011.118.014.178.01.12.013.18.01.12.013.18.008.12.01.18.007.12.01.18.006.121.009.182,0,.121.007.183,0,.121.006.183,0,.121.006.183,0,.123,0,.184,0,.123,0,.184,0,.114,0,.172c0,.039,0,.078,0,.117s0,.1,0,.146,0,.1,0,.147,0,.1,0,.148,0,.1,0,.147,0,.1,0,.148,0,.1,0,.146,0,.1,0,.147,0,.1,0,.147,0,.1,0,.148,0,.1,0,.147,0,.1,0,.147,0,.1,0,.147,0,.1,0,.148,0,.1,0,.146,0,.1,0,.148,0,.1,0,.147,0,.1,0,.147,0,.1,0,.147,0,.1,0,.148,0,.1,0,.146,0,.1,0,.147,0,.1,0,.148,0,.1,0,.147,0,.1,0,.147,0,.1,0,.147,0,.1,0,.148,0,.078,0,.117,0,.062,0,.092c0,.049,0,.1,0,.147s0,.1,0,.148,0,.1,0,.147,0,.1,0,.147,0,.1,0,.148,0,.1,0,.146,0,.1,0,.148,0,.1,0,.148,0,.1,0,.146,0,.1,0,.148,0,.1,0,.147,0,.1,0,.148,0,.1,0,.147,0,.1,0,.147,0,.1,0,.148,0,.1,0,.147,0,.1,0,.147,0,.1,0,.147,0,.1,0,.147,0,.1,0,.148,0,.1,0,.147,0,.1,0,.147,0,.1,0,.148,0,.1,0,.147,0,.1,0,.148,0,.1,0,.146,0,.1,0,.148,0,.1,0,.147,0,.1,0,.147,0,.1,0,.148,0,.1,0,.147,0,.1,0,.148,0,.1,0,.147,0,.1,0,.147,0,.1,0,.148,0,.1,0,.147,0,.1,0,.147,0,.1,0,.147,0,.1,0,.148,0,.1,0,.147,0,.1,0,.147,0,.1,0,.148,0,.1,0,.147,0,.1,0,.147,0,.1,0,.148,0,.1,0,.146,0,.1,0,.148,0,.1,0,.148,0,.1,0,.146,0,.1,0,.148,0,.1,0,.147,0,.1,0,.148,0,.1,0,.147,0,.1,0,.148,0,.1,0,.146,0,.1,0,.147,0,.1,0,.148,0,.1,0,.146,0,.1,0,.148,0,.1,0,.147,0,.1,0,.147,0,.1,0,.147,0,.1,0,.148,0,.1,0,.148,0,.1,0,.146,0,.1,0,.148,0,.1,0,.147,0,.1,0,.147,0,.1,0,.148,0,.1,0,.147,0,.1,0,.147,0,.1,0,.148,0,.1,0,.147,0,.1,0,.147,0,.1,0,.148,0,.1,0,.146,0,.1,0,.148,0,.1,0,.148,0,.1,0,.146c0,.03,0,.06,0,.089s0,.039,0,.059c0,.049,0,.1,0,.148s0,.1,0,.146,0,.1,0,.147,0,.1,0,.148,0,.1,0,.148,0,.1,0,.146,0,.1,0,.148,0,.1,0,.148,0,.1,0,.146,0,.1,0,.148,0,.1,0,.148,0,.1,0,.146,0,.1,0,.148,0,.1,0,.147,0,.1,0,.147,0,.1,0,.148,0,.1,0,.147,0,.1,0,.147,0,.1,0,.148,0,.1,0,.147,0,.1,0,.147,0,.1,0,.147,0,.1,0,.148,0,.1,0,.147,0,.1,0,.148,0,.1,0,.146,0,.1,0,.148,0,.1,0,.148,0,.1,0,.146,0,.1,0,.148,0,.1,0,.147,0,.1,0,.148,0,.1,0,.147,0,.1,0,.147,0,.1,0,.148,0,.1,0,.146,0,.1,0,.148,0,.1,0,.148,0,.1,0,.146,0,.1,0,.148,0,.1,0,.147,0,.1,0,.147,0,.1,0,.147,0,.1,0,.148,0,.1,0,.147,0,.1,0,.147,0,.1,0,.148a10.565,10.565,0,0,0,.322,3.048,9.84,9.84,0,0,0,2.686,4.68,9.059,9.059,0,0,0,1.684,1.275C388.2,376.417,388.2,369.788,388.2,369.788Zm-22.24-2.545c.053.01.106.019.159.03-.053-.011-.106-.02-.159-.03l-.158-.03Zm-.827-.174.029.007-.029-.007c-.052-.016-.1-.028-.157-.042C365.033,367.041,365.085,367.053,365.138,367.069Zm-.785-.223.156.047-.156-.047c-.052-.017-.1-.033-.157-.048C364.249,366.813,364.3,366.83,364.353,366.846Zm-2.4-.979.1.051-.1-.051c-.05-.028-.1-.053-.151-.079C361.851,365.814,361.9,365.84,361.951,365.868Zm-.884-.488c.047.025.091.055.137.08-.046-.025-.091-.056-.137-.08-.025-.017-.051-.029-.075-.046C361.016,365.35,361.042,365.363,361.066,365.379Zm-1.88-1.331.141.114-.141-.114-.077-.063Zm-1.641-1.526c.024.024.044.051.067.075-.023-.025-.043-.052-.067-.075s-.035-.03-.052-.047C357.511,362.492,357.529,362.505,357.546,362.522Zm-1.1-1.236.049.061-.049-.061c-.036-.045-.072-.091-.109-.137C356.378,361.195,356.414,361.241,356.45,361.286Zm-1.468-2.125c.014.026.031.051.045.078-.014-.027-.031-.052-.045-.078-.027-.051-.057-.1-.085-.151C354.924,359.061,354.955,359.111,354.982,359.161Zm-.569-1.063c.027.051.052.1.078.153l.027.052-.027-.052c-.026-.051-.051-.1-.078-.153s-.049-.1-.076-.154C354.363,358,354.387,358.048,354.413,358.1Zm-1.145-2.89c.017.055.034.11.051.164-.017-.055-.034-.109-.051-.164s-.033-.109-.05-.164C353.236,355.1,353.252,355.154,353.268,355.209Zm-.769-3.742c-.006-.056-.012-.113-.018-.17.006.057.013.113.018.17s.014.114.02.171C352.513,351.58,352.506,351.523,352.5,351.466Z"
      transform="translate(-1.742 -2.232)" opacity="0.78" fill="url(#linear-gradient-4)" />
  </g>
</svg>