<svg xmlns="http://www.w3.org/2000/svg" viewBox="0 0 189.714 166.692"><defs><style>.a{fill:#fff;}</style></defs><g transform="translate(-625 -150)"><g transform="translate(584.941 81.796)"><path class="a" d="M187.968,111.93a8.408,8.408,0,0,0-8.066,6.082H146.321l-9.346-9.345h22.537a8.4,8.4,0,1,0,0-4.632H132.343l-6.159-6.159-22.453,22.452,22.453,22.453,6.16-6.16h27.168a8.4,8.4,0,1,0,0-4.632H136.976l9.345-9.345H179.9a8.4,8.4,0,1,0,8.066-10.714Zm-20.389-9.346a3.767,3.767,0,1,1-3.767,3.767A3.771,3.771,0,0,1,167.579,102.584Zm0,27.955a3.767,3.767,0,1,1-3.767,3.766A3.77,3.77,0,0,1,167.579,130.539Zm-41.395,5.693-15.9-15.9,15.9-15.9,15.9,15.9ZM187.968,124.1a3.767,3.767,0,1,1,3.767-3.767A3.771,3.771,0,0,1,187.968,124.1Z"/><path class="a" d="M158.9,139.732H143.621l-17.437,17.437-36.841-36.84,36.841-36.841,17.437,17.438H158.9L126.184,68.2,74.059,120.328l52.125,52.124Z"/></g><path class="a" d="M-94.654,0V-16.958h3.917V-3.439h8.216V0ZM-75.5.239a7.41,7.41,0,0,1-2.83-.514,6.292,6.292,0,0,1-2.126-1.4A5.988,5.988,0,0,1-81.78-3.714a6.587,6.587,0,0,1-.454-2.424,7.231,7.231,0,0,1,.454-2.568,6.226,6.226,0,0,1,1.314-2.114,6.132,6.132,0,0,1,2.114-1.433,7.327,7.327,0,0,1,2.854-.525,7.238,7.238,0,0,1,2.842.525,6.243,6.243,0,0,1,2.1,1.421,6.025,6.025,0,0,1,1.3,2.066,6.906,6.906,0,0,1,.442,2.46q0,.334-.024.657a4.65,4.65,0,0,1-.072.561h-9.267a2.577,2.577,0,0,0,.92,1.923,2.927,2.927,0,0,0,1.875.657,3.435,3.435,0,0,0,1.612-.406,2.073,2.073,0,0,0,1.039-1.1l3.248.908A5.845,5.845,0,0,1-71.773-.693,7.111,7.111,0,0,1-75.5.239Zm2.651-7.691a2.872,2.872,0,0,0-.86-1.887,2.589,2.589,0,0,0-1.839-.693,2.554,2.554,0,0,0-1.851.7,2.923,2.923,0,0,0-.848,1.875ZM-63.509.239a4.914,4.914,0,0,1-1.732-.3A4.052,4.052,0,0,1-66.614-.9a4.01,4.01,0,0,1-.908-1.266,3.761,3.761,0,0,1-.334-1.588,3.645,3.645,0,0,1,.394-1.7,3.89,3.89,0,0,1,1.111-1.314,5.483,5.483,0,0,1,1.7-.86,7.167,7.167,0,0,1,2.173-.31,8.736,8.736,0,0,1,1.529.131,5.02,5.02,0,0,1,1.29.394v-.573q0-2.173-2.508-2.173A5.574,5.574,0,0,0-64.13-9.8a9.414,9.414,0,0,0-1.959,1.039l-1.123-2.388a10.023,10.023,0,0,1,2.58-1.218,9.734,9.734,0,0,1,2.842-.406,6.531,6.531,0,0,1,4.395,1.338,4.887,4.887,0,0,1,1.552,3.917V-4.3a1.331,1.331,0,0,0,.179.8.89.89,0,0,0,.633.275V0a6.381,6.381,0,0,1-.908.155q-.406.036-.74.036A2.656,2.656,0,0,1-58.3-.227a1.851,1.851,0,0,1-.693-1.182l-.072-.573A5.726,5.726,0,0,1-61.061-.334,5.449,5.449,0,0,1-63.509.239Zm1.123-2.747a3.471,3.471,0,0,0,1.206-.215,2.81,2.81,0,0,0,.967-.573,1.186,1.186,0,0,0,.549-.908V-5.4a6.189,6.189,0,0,0-1.087-.3A6.041,6.041,0,0,0-61.837-5.8a2.945,2.945,0,0,0-1.732.478,1.456,1.456,0,0,0-.681,1.242,1.415,1.415,0,0,0,.525,1.135A2.007,2.007,0,0,0-62.386-2.508ZM-47.864.239a5.718,5.718,0,0,1-2.377-.49,5.525,5.525,0,0,1-1.875-1.373,6.474,6.474,0,0,1-1.23-2.066,7.348,7.348,0,0,1-.442-2.591,7.887,7.887,0,0,1,.406-2.556A6.271,6.271,0,0,1-52.235-10.9a5.448,5.448,0,0,1,1.756-1.373,4.971,4.971,0,0,1,2.233-.5,4.623,4.623,0,0,1,2.377.621,4.286,4.286,0,0,1,1.636,1.672v-6.95h3.822V-4.3a1.331,1.331,0,0,0,.179.8.89.89,0,0,0,.633.275V0a7.235,7.235,0,0,1-.908.155q-.382.036-.717.036a2.858,2.858,0,0,1-1.624-.418,1.615,1.615,0,0,1-.717-1.206l-.072-.645a4.271,4.271,0,0,1-1.8,1.744A5.3,5.3,0,0,1-47.864.239Zm1.027-3.224a2.776,2.776,0,0,0,1.517-.466A2.994,2.994,0,0,0-44.21-4.729V-7.356a3.446,3.446,0,0,0-1.158-1.564,2.708,2.708,0,0,0-1.66-.609,2.367,2.367,0,0,0-1.135.275,3.032,3.032,0,0,0-.9.728,3.225,3.225,0,0,0-.585,1.051,3.906,3.906,0,0,0-.2,1.266,3.6,3.6,0,0,0,.227,1.29A3.164,3.164,0,0,0-49-3.893a2.725,2.725,0,0,0,.955.669A3.048,3.048,0,0,0-46.837-2.986ZM-19.92-1.672A6.378,6.378,0,0,1-24.386.119a7.937,7.937,0,0,1-3.153-.633A7.886,7.886,0,0,1-30.13-2.293a8.391,8.391,0,0,1-1.756-2.759A9.467,9.467,0,0,1-32.531-8.6a8.506,8.506,0,0,1,.645-3.3,8.342,8.342,0,0,1,1.779-2.7,8.425,8.425,0,0,1,2.687-1.815,8.361,8.361,0,0,1,3.344-.669,8.308,8.308,0,0,1,4.132.991,6.441,6.441,0,0,1,2.651,2.711l-2.914,2.2a4.17,4.17,0,0,0-1.66-1.779,4.594,4.594,0,0,0-2.353-.633A3.972,3.972,0,0,0-26-13.2a4.073,4.073,0,0,0-1.373,1.1,5.14,5.14,0,0,0-.884,1.636,6.306,6.306,0,0,0-.31,2.006,5.968,5.968,0,0,0,.334,2.03A4.953,4.953,0,0,0-27.3-4.813,4.246,4.246,0,0,0-25.879-3.75a4.29,4.29,0,0,0,1.827.382A5.391,5.391,0,0,0-19.92-5.493v-.525h-3.3V-8.861h6.544V0H-19.92ZM-8.407.239a7.41,7.41,0,0,1-2.83-.514,6.293,6.293,0,0,1-2.126-1.4,5.988,5.988,0,0,1-1.326-2.042,6.587,6.587,0,0,1-.454-2.424,7.231,7.231,0,0,1,.454-2.568,6.226,6.226,0,0,1,1.314-2.114,6.132,6.132,0,0,1,2.114-1.433,7.327,7.327,0,0,1,2.854-.525,7.238,7.238,0,0,1,2.842.525,6.243,6.243,0,0,1,2.1,1.421,6.025,6.025,0,0,1,1.3,2.066,6.907,6.907,0,0,1,.442,2.46q0,.334-.024.657a4.651,4.651,0,0,1-.072.561h-9.267a2.577,2.577,0,0,0,.92,1.923,2.927,2.927,0,0,0,1.875.657,3.435,3.435,0,0,0,1.612-.406,2.073,2.073,0,0,0,1.039-1.1l3.248.908A5.845,5.845,0,0,1-4.681-.693,7.111,7.111,0,0,1-8.407.239Zm2.651-7.691a2.872,2.872,0,0,0-.86-1.887,2.589,2.589,0,0,0-1.839-.693,2.554,2.554,0,0,0-1.851.7,2.923,2.923,0,0,0-.848,1.875ZM12.109,0H8.288V-7.046a2.814,2.814,0,0,0-.466-1.8,1.519,1.519,0,0,0-1.23-.561,2.119,2.119,0,0,0-.812.167,3.36,3.36,0,0,0-.788.466,3.577,3.577,0,0,0-.681.7,3.353,3.353,0,0,0-.466.884V0H.024V-12.539H3.463v2.1a4.565,4.565,0,0,1,1.959-1.732,6.644,6.644,0,0,1,2.914-.609,3.8,3.8,0,0,1,1.959.442,3.165,3.165,0,0,1,1.146,1.146,4.436,4.436,0,0,1,.537,1.541,10.459,10.459,0,0,1,.131,1.624Zm8.527.239a7.41,7.41,0,0,1-2.83-.514,6.293,6.293,0,0,1-2.126-1.4,5.988,5.988,0,0,1-1.326-2.042A6.587,6.587,0,0,1,13.9-6.138a7.231,7.231,0,0,1,.454-2.568,6.226,6.226,0,0,1,1.314-2.114,6.132,6.132,0,0,1,2.114-1.433,7.327,7.327,0,0,1,2.854-.525,7.238,7.238,0,0,1,2.842.525,6.243,6.243,0,0,1,2.1,1.421,6.025,6.025,0,0,1,1.3,2.066,6.907,6.907,0,0,1,.442,2.46q0,.334-.024.657a4.651,4.651,0,0,1-.072.561H17.961a2.577,2.577,0,0,0,.92,1.923,2.927,2.927,0,0,0,1.875.657,3.435,3.435,0,0,0,1.612-.406,2.073,2.073,0,0,0,1.039-1.1l3.248.908A5.845,5.845,0,0,1,24.362-.693,7.111,7.111,0,0,1,20.636.239Zm2.651-7.691a2.872,2.872,0,0,0-.86-1.887,2.589,2.589,0,0,0-1.839-.693,2.554,2.554,0,0,0-1.851.7,2.923,2.923,0,0,0-.848,1.875ZM37.021-9.267a7.323,7.323,0,0,0-2.508.454,3.058,3.058,0,0,0-1.624,1.29V0H29.067V-12.539h3.511v2.532a5.325,5.325,0,0,1,1.66-1.982,3.826,3.826,0,0,1,2.162-.74h.382a1.215,1.215,0,0,1,.239.024ZM42.013.239a4.914,4.914,0,0,1-1.732-.3A4.052,4.052,0,0,1,38.908-.9,4.01,4.01,0,0,1,38-2.162a3.761,3.761,0,0,1-.334-1.588,3.645,3.645,0,0,1,.394-1.7,3.89,3.89,0,0,1,1.111-1.314,5.483,5.483,0,0,1,1.7-.86,7.167,7.167,0,0,1,2.173-.31,8.736,8.736,0,0,1,1.529.131,5.02,5.02,0,0,1,1.29.394v-.573q0-2.173-2.508-2.173a5.574,5.574,0,0,0-1.959.346,9.414,9.414,0,0,0-1.959,1.039l-1.123-2.388a10.023,10.023,0,0,1,2.58-1.218,9.734,9.734,0,0,1,2.842-.406,6.531,6.531,0,0,1,4.395,1.338A4.887,4.887,0,0,1,49.68-7.524V-4.3a1.331,1.331,0,0,0,.179.8.89.89,0,0,0,.633.275V0a6.381,6.381,0,0,1-.908.155q-.406.036-.74.036A2.656,2.656,0,0,1,47.22-.227a1.851,1.851,0,0,1-.693-1.182l-.072-.573A5.726,5.726,0,0,1,44.461-.334,5.449,5.449,0,0,1,42.013.239Zm1.123-2.747a3.471,3.471,0,0,0,1.206-.215,2.81,2.81,0,0,0,.967-.573,1.186,1.186,0,0,0,.549-.908V-5.4a6.189,6.189,0,0,0-1.087-.3A6.041,6.041,0,0,0,43.685-5.8a2.945,2.945,0,0,0-1.732.478,1.456,1.456,0,0,0-.681,1.242A1.415,1.415,0,0,0,41.8-2.95,2.007,2.007,0,0,0,43.135-2.508ZM60.476-.669a15.251,15.251,0,0,1-1.8.621A7.483,7.483,0,0,1,56.63.239,4.935,4.935,0,0,1,55.281.06,3.011,3.011,0,0,1,54.17-.514a2.677,2.677,0,0,1-.752-1.039A3.952,3.952,0,0,1,53.143-3.1V-9.649h-1.6v-2.89h1.6v-3.989h3.822v3.989H59.52v2.89H56.964v5.231a1.141,1.141,0,0,0,.31.9,1.146,1.146,0,0,0,.788.275,2.927,2.927,0,0,0,.884-.143,5.426,5.426,0,0,0,.788-.31ZM61.956,0V-12.539h3.822V0Zm0-13.972v-3.463h3.822v3.463ZM74.376.239a7.327,7.327,0,0,1-2.854-.525,6.216,6.216,0,0,1-2.114-1.421,6,6,0,0,1-1.3-2.078,7,7,0,0,1-.442-2.472,7,7,0,0,1,.442-2.472,6,6,0,0,1,1.3-2.078,6.36,6.36,0,0,1,2.114-1.433,7.184,7.184,0,0,1,2.854-.537,7.1,7.1,0,0,1,2.842.537,6.389,6.389,0,0,1,2.1,1.433A6.15,6.15,0,0,1,80.634-8.73a6.839,6.839,0,0,1,.454,2.472,7,7,0,0,1-.442,2.472,6,6,0,0,1-1.3,2.078A6.216,6.216,0,0,1,77.23-.287,7.327,7.327,0,0,1,74.376.239Zm-2.794-6.5a3.467,3.467,0,0,0,.788,2.377,2.554,2.554,0,0,0,2.006.9,2.522,2.522,0,0,0,1.1-.239,2.636,2.636,0,0,0,.872-.669,3.21,3.21,0,0,0,.585-1.039,3.957,3.957,0,0,0,.215-1.326,3.467,3.467,0,0,0-.788-2.377,2.529,2.529,0,0,0-1.982-.9,2.6,2.6,0,0,0-1.111.239,2.6,2.6,0,0,0-.884.669A3.21,3.21,0,0,0,71.8-7.583,3.957,3.957,0,0,0,71.582-6.258ZM95.06,0H91.239V-7.046a2.814,2.814,0,0,0-.466-1.8,1.519,1.519,0,0,0-1.23-.561,2.119,2.119,0,0,0-.812.167,3.36,3.36,0,0,0-.788.466,3.577,3.577,0,0,0-.681.7,3.353,3.353,0,0,0-.466.884V0H82.975V-12.539h3.439v2.1a4.565,4.565,0,0,1,1.959-1.732,6.644,6.644,0,0,1,2.914-.609,3.8,3.8,0,0,1,1.959.442,3.165,3.165,0,0,1,1.146,1.146,4.436,4.436,0,0,1,.537,1.541,10.458,10.458,0,0,1,.131,1.624Z" transform="translate(719.654 294.495)"/><path class="a" d="M-30.854-5.016a5.287,5.287,0,0,1,.313-1.776,4.939,4.939,0,0,1,.92-1.588,4.63,4.63,0,0,1,1.484-1.136,4.454,4.454,0,0,1,1.992-.432,4.161,4.161,0,0,1,2.271.6,3.725,3.725,0,0,1,1.407,1.56l-.989.641a2.871,2.871,0,0,0-.536-.794,2.754,2.754,0,0,0-.683-.516,2.939,2.939,0,0,0-.759-.279,3.651,3.651,0,0,0-.766-.084,3.023,3.023,0,0,0-1.456.341,3.367,3.367,0,0,0-1.066.892,3.856,3.856,0,0,0-.648,1.24,4.616,4.616,0,0,0-.216,1.386,4.279,4.279,0,0,0,.258,1.484,4.089,4.089,0,0,0,.718,1.247,3.494,3.494,0,0,0,1.087.864,2.956,2.956,0,0,0,1.365.32,3.464,3.464,0,0,0,.8-.1,2.936,2.936,0,0,0,.787-.313,3.362,3.362,0,0,0,.7-.543,2.652,2.652,0,0,0,.536-.787l1.045.571a3.079,3.079,0,0,1-.662.982,4.187,4.187,0,0,1-.961.718,4.9,4.9,0,0,1-1.136.446,4.713,4.713,0,0,1-1.17.153,3.957,3.957,0,0,1-1.867-.446,4.984,4.984,0,0,1-1.47-1.163,5.323,5.323,0,0,1-.961-1.63A5.27,5.27,0,0,1-30.854-5.016ZM-17.729.139a3.584,3.584,0,0,1-1.5-.307,3.587,3.587,0,0,1-1.156-.822,3.7,3.7,0,0,1-.745-1.2,3.935,3.935,0,0,1-.265-1.435,3.882,3.882,0,0,1,.272-1.449,3.8,3.8,0,0,1,.752-1.2,3.587,3.587,0,0,1,1.156-.822A3.55,3.55,0,0,1-17.729-7.4a3.6,3.6,0,0,1,1.491.307,3.567,3.567,0,0,1,1.163.822,3.8,3.8,0,0,1,.752,1.2,3.882,3.882,0,0,1,.272,1.449,3.935,3.935,0,0,1-.265,1.435,3.639,3.639,0,0,1-.752,1.2,3.668,3.668,0,0,1-1.163.822A3.584,3.584,0,0,1-17.729.139Zm-2.41-3.748a2.918,2.918,0,0,0,.188,1.059,2.7,2.7,0,0,0,.516.85,2.434,2.434,0,0,0,.766.571,2.16,2.16,0,0,0,.94.209,2.16,2.16,0,0,0,.94-.209,2.466,2.466,0,0,0,.773-.578,2.7,2.7,0,0,0,.522-.864,2.974,2.974,0,0,0,.188-1.066,2.934,2.934,0,0,0-.188-1.052,2.7,2.7,0,0,0-.522-.864,2.466,2.466,0,0,0-.773-.578,2.16,2.16,0,0,0-.94-.209,2.1,2.1,0,0,0-.94.216,2.477,2.477,0,0,0-.766.585,2.773,2.773,0,0,0-.516.864A2.974,2.974,0,0,0-20.14-3.609ZM-1.6,0H-2.821V-4.068a3.045,3.045,0,0,0-.369-1.686A1.236,1.236,0,0,0-4.284-6.3a1.948,1.948,0,0,0-1.345.536,2.95,2.95,0,0,0-.843,1.386V0H-7.7V-4.068a3.082,3.082,0,0,0-.362-1.7A1.229,1.229,0,0,0-9.147-6.3a1.985,1.985,0,0,0-1.338.522,2.838,2.838,0,0,0-.85,1.386V0H-12.56V-7.273h1.115v1.56a3.3,3.3,0,0,1,1.156-1.247,2.987,2.987,0,0,1,1.6-.439A2.064,2.064,0,0,1-7.231-6.9a2.139,2.139,0,0,1,.662,1.275A3.035,3.035,0,0,1-3.8-7.4a2.189,2.189,0,0,1,1.052.23,1.757,1.757,0,0,1,.676.641,2.958,2.958,0,0,1,.362.968A6.185,6.185,0,0,1-1.6-4.347ZM4.229.139a2.873,2.873,0,0,1-1.6-.446A3.384,3.384,0,0,1,1.54-1.435v4.4H.313V-7.273H1.4v1.365a3.371,3.371,0,0,1,1.122-1.08A2.924,2.924,0,0,1,4.047-7.4a3.1,3.1,0,0,1,1.379.307,3.455,3.455,0,0,1,1.087.829,3.88,3.88,0,0,1,.718,1.205,3.99,3.99,0,0,1,.258,1.421,4.494,4.494,0,0,1-.237,1.47,3.671,3.671,0,0,1-.669,1.2A3.239,3.239,0,0,1,5.552-.16,2.918,2.918,0,0,1,4.229.139ZM3.852-.92a2.084,2.084,0,0,0,.982-.23,2.4,2.4,0,0,0,.752-.613,2.792,2.792,0,0,0,.481-.871,3.072,3.072,0,0,0,.167-1,2.8,2.8,0,0,0-.2-1.038,2.807,2.807,0,0,0-.529-.864,2.508,2.508,0,0,0-.787-.585,2.252,2.252,0,0,0-.982-.216,1.97,1.97,0,0,0-.69.132,3.054,3.054,0,0,0-.669.348,2.388,2.388,0,0,0-.543.516,1.558,1.558,0,0,0-.3.634v2.076a3.157,3.157,0,0,0,.39.676,2.738,2.738,0,0,0,.543.543,2.665,2.665,0,0,0,.655.362A2.023,2.023,0,0,0,3.852-.92ZM10.861.139A2.619,2.619,0,0,1,9.9-.035a2.391,2.391,0,0,1-.773-.481,2.263,2.263,0,0,1-.516-.718,2.134,2.134,0,0,1-.188-.9,1.883,1.883,0,0,1,.223-.913,2.074,2.074,0,0,1,.634-.7,3.269,3.269,0,0,1,.975-.46,4.326,4.326,0,0,1,1.233-.167,6.064,6.064,0,0,1,1.073.1,4.949,4.949,0,0,1,.961.265V-4.6a1.907,1.907,0,0,0-.5-1.4A1.907,1.907,0,0,0,11.6-6.507a4.068,4.068,0,0,0-2.313.85l-.4-.794A5.029,5.029,0,0,1,11.71-7.4a3.1,3.1,0,0,1,2.236.766,2.847,2.847,0,0,1,.8,2.16V-1.5q0,.432.39.446V0q-.2.028-.32.042a2.4,2.4,0,0,1-.265.014.781.781,0,0,1-.578-.216.889.889,0,0,1-.258-.522L13.689-1.2a3.147,3.147,0,0,1-1.233,1A3.786,3.786,0,0,1,10.861.139Zm.32-.92A3.04,3.04,0,0,0,12.4-1.024a2.009,2.009,0,0,0,.857-.648.774.774,0,0,0,.265-.543V-3.288a5.049,5.049,0,0,0-1.853-.348,2.628,2.628,0,0,0-1.5.39,1.181,1.181,0,0,0-.578,1.017,1.383,1.383,0,0,0,.118.571,1.363,1.363,0,0,0,.334.46,1.6,1.6,0,0,0,.509.307A1.746,1.746,0,0,0,11.181-.78ZM23.024,0H21.8V-4.068a3.131,3.131,0,0,0-.355-1.7,1.212,1.212,0,0,0-1.08-.529,2.063,2.063,0,0,0-.752.146,2.982,2.982,0,0,0-.711.4,2.757,2.757,0,0,0-.585.6,2.561,2.561,0,0,0-.376.766V0H16.712V-7.273h1.115v1.56a3.2,3.2,0,0,1,1.247-1.226A3.555,3.555,0,0,1,20.85-7.4a2.147,2.147,0,0,1,1.045.23,1.772,1.772,0,0,1,.669.641,2.852,2.852,0,0,1,.355.968,6.585,6.585,0,0,1,.1,1.212Zm2.1,1.978q.181.028.362.042t.279.014a.587.587,0,0,0,.3-.077.822.822,0,0,0,.265-.3,5.262,5.262,0,0,0,.3-.62Q26.8.641,27.05,0L23.971-7.273h1.268L27.719-1.1l2.257-6.172h1.17L27.608,1.909a2.116,2.116,0,0,1-.648.857,1.919,1.919,0,0,1-1.247.369,2.462,2.462,0,0,1-.258-.014,3.224,3.224,0,0,1-.327-.056Z" transform="translate(719.854 313.557)"/></g></svg>